<svg data-v-fde0c5aa="" xmlns="http://www.w3.org/2000/svg" viewBox="0 0 300 300" class="iconLeftSlogan"><!----><defs data-v-fde0c5aa=""><!----></defs><rect data-v-fde0c5aa="" fill="#066274" x="0" y="0" width="300px" height="300px" class="logo-background-square"></rect><defs data-v-fde0c5aa=""><!----></defs><g data-v-fde0c5aa="" id="4dce02b7-da55-4454-9ed4-6b03477be9d0" fill="#87B38D" transform="matrix(0.8650499733561222,0,0,0.8650499733561222,116.15676700326476,131.55019216384855)"><path d="M3.58 0.01L3.58 0.01L3.58 0.01Q4.75 0.01 5.63 0.41L5.63 0.41L5.63 0.41Q6.51 0.80 7.08 1.37L7.08 1.37L7.08 1.37Q7.66 1.93 7.92 2.57L7.92 2.57L7.92 2.57Q8.18 3.21 8.09 3.68L8.09 3.68L8.09 3.68Q8.09 3.08 7.73 2.46L7.73 2.46L7.73 2.46Q7.36 1.85 6.74 1.34L6.74 1.34L6.74 1.34Q6.12 0.84 5.31 0.53L5.31 0.53L5.31 0.53Q4.51 0.21 3.63 0.21L3.63 0.21L3.63 0.21Q3.00 0.21 2.25 0.41L2.25 0.41L2.25 0.41Q1.51 0.62 0.88 0.95L0.88 0.95L0.88 0.95Q0.25 1.27-0.17 1.69L-0.17 1.69L-0.17 1.69Q-0.59 2.11-0.59 2.55L-0.59 2.55L-0.59 2.55Q-0.59 2.93-0.35 3.35L-0.35 3.35L-0.35 3.35Q-0.11 3.77 0.27 4.19L0.27 4.19L0.27 4.19Q0.64 4.61 1.12 5.00L1.12 5.00L1.12 5.00Q1.60 5.40 2.06 5.74L2.06 5.74L2.06 5.74Q2.53 6.08 2.96 6.34L2.96 6.34L2.96 6.34Q3.39 6.61 3.67 6.75L3.67 6.75L3.67 6.75Q4.07 6.96 4.66 7.20L4.66 7.20L4.66 7.20Q5.25 7.43 5.80 7.80L5.80 7.80L5.80 7.80Q6.34 8.16 6.73 8.72L6.73 8.72L6.73 8.72Q7.11 9.28 7.11 10.12L7.11 10.12L7.11 10.12Q7.11 10.58 6.97 10.96L6.97 10.96L6.97 10.96Q6.83 11.34 6.60 11.67L6.60 11.67L6.60 11.67Q6.37 12.00 6.07 12.29L6.07 12.29L6.07 12.29Q5.77 12.57 5.45 12.82L5.45 12.82L5.45 12.82Q4.77 13.37 4.17 13.69L4.17 13.69L4.17 13.69Q3.56 14.01 2.91 14.01L2.91 14.01L2.91 14.01Q2.37 14.01 1.92 13.79L1.92 13.79L1.92 13.79Q1.47 13.57 1.15 13.22L1.15 13.22L1.15 13.22Q0.83 12.87 0.65 12.43L0.65 12.43L0.65 12.43Q0.48 12.00 0.48 11.58L0.48 11.58L0.48 11.58Q0.48 10.98 0.62 10.57L0.62 10.57L0.62 10.57Q0.76 10.16 0.98 9.88L0.98 9.88L0.98 9.88Q1.20 9.60 1.49 9.41L1.49 9.41L1.49 9.41Q1.78 9.21 2.07 9.03L2.07 9.03L2.07 9.03Q2.35 8.82 2.65 8.65L2.65 8.65L2.65 8.65Q2.94 8.48 3.26 8.37L3.26 8.37L3.26 8.37Q2.76 8.13 2.29 7.88L2.29 7.88L2.29 7.88Q1.82 7.63 1.47 7.35L1.47 7.35L1.47 7.35Q1.08 7.08 0.48 6.66L0.48 6.66L0.48 6.66Q-0.13 6.24-0.70 5.73L-0.70 5.73L-0.70 5.73Q-1.27 5.22-1.69 4.65L-1.69 4.65L-1.69 4.65Q-2.10 4.07-2.10 3.50L-2.10 3.50L-2.10 3.50Q-2.10 3.08-1.80 2.65L-1.80 2.65L-1.80 2.65Q-1.50 2.23-1.02 1.84L-1.02 1.84L-1.02 1.84Q-0.53 1.46 0.09 1.12L0.09 1.12L0.09 1.12Q0.71 0.78 1.34 0.54L1.34 0.54L1.34 0.54Q1.97 0.29 2.56 0.15L2.56 0.15L2.56 0.15Q3.15 0.01 3.58 0.01ZM5.56 10.96L5.56 10.96L5.56 10.96Q5.56 10.54 5.38 10.19L5.38 10.19L5.38 10.19Q5.21 9.83 4.92 9.53L4.92 9.53L4.92 9.53Q4.63 9.23 4.25 8.97L4.25 8.97L4.25 8.97Q3.86 8.72 3.44 8.51L3.44 8.51L3.44 8.51Q3.19 8.55 2.93 8.70L2.93 8.70L2.93 8.70Q2.66 8.85 2.44 9.08L2.44 9.08L2.44 9.08Q2.21 9.31 2.07 9.63L2.07 9.63L2.07 9.63Q1.93 9.94 1.93 10.30L1.93 10.30L1.93 10.30Q1.93 10.75 2.10 11.17L2.10 11.17L2.10 11.17Q2.27 11.59 2.58 11.91L2.58 11.91L2.58 11.91Q2.90 12.24 3.36 12.44L3.36 12.44L3.36 12.44Q3.82 12.64 4.42 12.64L4.42 12.64L4.42 12.64Q4.90 12.64 5.14 12.52L5.14 12.52L5.14 12.52Q5.38 12.40 5.47 12.19L5.47 12.19L5.47 12.19Q5.56 11.97 5.56 11.66L5.56 11.66L5.56 11.66Q5.56 11.35 5.56 10.96ZM12.80 7.06L12.80 7.06L12.80 7.06Q13.01 7.06 13.24 7.07L13.24 7.07L13.24 7.07Q13.48 7.08 13.64 7.15L13.64 7.15L13.64 7.15Q13.48 7.36 13.34 7.69L13.34 7.69L13.34 7.69Q13.20 8.01 13.09 8.30L13.09 8.30L13.09 8.30Q12.95 8.67 12.84 9.03L12.84 9.03L12.84 9.03Q12.74 8.97 12.59 8.92L12.59 8.92L12.59 8.92Q12.46 8.88 12.27 8.83L12.27 8.83L12.27 8.83Q12.08 8.79 11.82 8.79L11.82 8.79L11.82 8.79Q11.40 8.79 11.12 9.02L11.12 9.02L11.12 9.02Q10.85 9.25 10.68 9.63L10.68 9.63L10.68 9.63Q10.51 10.00 10.42 10.44L10.42 10.44L10.42 10.44Q10.33 10.89 10.29 11.31L10.29 11.31L10.29 11.31Q10.29 12.12 10.31 12.57L10.31 12.57L10.31 12.57Q10.33 13.02 10.33 13.30L10.33 13.30L10.33 13.30Q10.15 13.34 9.93 13.42L9.93 13.42L9.93 13.42Q9.72 13.50 9.49 13.60L9.49 13.60L9.49 13.60Q9.27 13.71 9.05 13.81L9.05 13.81L9.05 13.81Q8.83 13.92 8.67 14.01L8.67 14.01L8.67 14.01Q8.74 13.38 8.79 12.71L8.79 12.71L8.79 12.71Q8.83 12.04 8.86 11.40L8.86 11.40L8.86 11.40Q8.88 10.75 8.86 10.17L8.86 10.17L8.86 10.17Q8.83 9.59 8.77 9.15L8.77 9.15L8.77 9.15Q8.71 8.71 8.61 8.43L8.61 8.43L8.61 8.43Q8.51 8.16 8.37 8.13L8.37 8.13L8.37 8.13Q8.30 8.12 8.22 8.12L8.22 8.12L8.22 8.12Q8.13 8.12 8.05 8.12L8.05 8.12L8.05 8.12Q7.95 8.12 7.85 8.13L7.85 8.13L7.85 8.13Q8.23 8.01 8.61 7.84L8.61 7.84L8.61 7.84Q8.93 7.69 9.32 7.48L9.32 7.48L9.32 7.48Q9.72 7.28 10.08 7.01L10.08 7.01L10.08 7.01Q10.12 7.20 10.15 7.51L10.15 7.51L10.15 7.51Q10.18 7.83 10.21 8.22L10.21 8.22L10.21 8.22Q10.23 8.62 10.25 9.07L10.25 9.07L10.25 9.07Q10.26 9.52 10.29 9.95L10.29 9.95L10.29 9.95Q10.50 9.48 10.78 8.97L10.78 8.97L10.78 8.97Q11.06 8.46 11.38 8.03L11.38 8.03L11.38 8.03Q11.70 7.60 12.07 7.33L12.07 7.33L12.07 7.33Q12.43 7.06 12.80 7.06ZM20.51 9.52L20.51 9.52L20.51 9.52Q20.62 9.79 20.83 10.30L20.83 10.30L20.83 10.30Q21.04 10.82 21.27 11.35L21.27 11.35L21.27 11.35Q21.50 11.89 21.73 12.29L21.73 12.29L21.73 12.29Q21.95 12.70 22.11 12.73L22.11 12.73L22.11 12.73Q21.69 12.96 21.23 13.30L21.23 13.30L21.23 13.30Q20.78 13.64 20.44 14L20.44 14L20.44 14Q20.37 13.69 20.19 13.14L20.19 13.14L20.19 13.14Q20.01 12.59 19.70 11.93L19.70 11.93L19.70 11.93Q19.43 12.19 19.03 12.55L19.03 12.55L19.03 12.55Q18.62 12.91 18.16 13.23L18.16 13.23L18.16 13.23Q17.70 13.55 17.20 13.78L17.20 13.78L17.20 13.78Q16.70 14 16.25 14L16.25 14L16.25 14Q15.93 14 15.59 13.91L15.59 13.91L15.59 13.91Q15.25 13.82 14.97 13.64L14.97 13.64L14.97 13.64Q14.69 13.47 14.51 13.22L14.51 13.22L14.51 13.22Q14.34 12.96 14.34 12.64L14.34 12.64L14.34 12.64Q14.34 12.25 14.74 11.80L14.74 11.80L14.74 11.80Q15.15 11.35 15.75 10.91L15.75 10.91L15.75 10.91Q16.35 10.47 17.05 10.05L17.05 10.05L17.05 10.05Q17.75 9.63 18.34 9.27L18.34 9.27L18.34 9.27Q17.91 8.72 17.52 8.48L17.52 8.48L17.52 8.48Q17.14 8.23 16.67 8.23L16.67 8.23L16.67 8.23Q16.48 8.23 16.16 8.34L16.16 8.34L16.16 8.34Q15.85 8.46 15.55 8.60L15.55 8.60L15.55 8.60Q15.19 8.75 14.83 8.95L14.83 8.95L14.83 8.95Q15.61 8.41 16.34 7.98L16.34 7.98L16.34 7.98Q16.65 7.80 16.97 7.63L16.97 7.63L16.97 7.63Q17.29 7.46 17.59 7.32L17.59 7.32L17.59 7.32Q17.89 7.18 18.15 7.10L18.15 7.10L18.15 7.10Q18.41 7.01 18.59 7.01L18.59 7.01L18.59 7.01Q18.94 7.01 19.24 7.31L19.24 7.31L19.24 7.31Q19.54 7.62 19.79 8.03L19.79 8.03L19.79 8.03Q20.03 8.44 20.21 8.86L20.21 8.86L20.21 8.86Q20.38 9.28 20.51 9.52ZM17.77 12.64L17.77 12.64L17.77 12.64Q18.10 12.64 18.41 12.54L18.41 12.54L18.41 12.54Q18.72 12.45 18.95 12.26L18.95 12.26L18.95 12.26Q19.18 12.08 19.32 11.83L19.32 11.83L19.32 11.83Q19.46 11.58 19.46 11.28L19.46 11.28L19.46 11.28Q19.35 11.10 19.22 10.88L19.22 10.88L19.22 10.88Q19.10 10.67 18.98 10.47L18.98 10.47L18.98 10.47Q18.87 10.22 18.75 9.99L18.75 9.99L18.75 9.99Q18.63 9.76 18.51 9.60L18.51 9.60L18.51 9.60Q18.20 9.72 17.76 9.92L17.76 9.92L17.76 9.92Q17.32 10.12 16.91 10.39L16.91 10.39L16.91 10.39Q16.51 10.67 16.22 10.99L16.22 10.99L16.22 10.99Q15.93 11.31 15.93 11.66L15.93 11.66L15.93 11.66Q15.93 11.86 16.08 12.03L16.08 12.03L16.08 12.03Q16.23 12.21 16.47 12.34L16.47 12.34L16.47 12.34Q16.72 12.47 17.05 12.56L17.05 12.56L17.05 12.56Q17.39 12.64 17.77 12.64ZM29.32 8.34L29.32 8.34L29.32 8.34Q29.18 9.90 29.30 11.16L29.30 11.16L29.30 11.16Q29.43 12.42 29.72 13.45L29.72 13.45L29.72 13.45Q30.02 14.49 30.45 15.33L30.45 15.33L30.45 15.33Q30.88 16.17 31.35 16.91L31.35 16.91L31.35 16.91Q31.82 17.64 32.28 18.30L32.28 18.30L32.28 18.30Q32.75 18.96 33.12 19.61L33.12 19.61L33.12 19.61Q33.49 20.27 33.72 20.96L33.72 20.96L33.72 20.96Q33.95 21.66 33.95 22.47L33.95 22.47L33.95 22.47Q33.95 23.32 33.64 24.08L33.64 24.08L33.64 24.08Q33.33 24.84 32.84 25.49L32.84 25.49L32.84 25.49Q32.35 26.15 31.76 26.73L31.76 26.73L31.76 26.73Q31.16 27.30 30.59 27.77L30.59 27.77L30.59 27.77Q30.02 28.24 29.53 28.62L29.53 28.62L29.53 28.62Q29.05 28.99 28.78 29.26L28.78 29.26L28.78 29.26Q28.43 28.90 27.87 28.39L27.87 28.39L27.87 28.39Q27.31 27.89 26.60 27.34L26.60 27.34L26.60 27.34Q25.89 26.80 25.04 26.26L25.04 26.26L25.04 26.26Q24.19 25.73 23.25 25.30L23.25 25.30L23.25 25.30Q22.32 24.86 21.32 24.58L21.32 24.58L21.32 24.58Q20.31 24.30 19.29 24.26L19.29 24.26L19.29 24.26Q18.54 25.14 17.66 26.03L17.66 26.03L17.66 26.03Q16.79 26.92 15.91 27.64L15.91 27.64L15.91 27.64Q15.04 28.36 14.21 28.84L14.21 28.84L14.21 28.84Q13.38 29.32 12.73 29.36L12.73 29.36L12.73 29.36Q12.43 29.39 12.25 29.27L12.25 29.27L12.25 29.27Q12.07 29.15 12.07 28.83L12.07 28.83L12.07 28.83Q12.07 28.45 12.43 27.89L12.43 27.89L12.43 27.89Q12.80 27.33 13.40 26.72L13.40 26.72L13.40 26.72Q14.01 26.11 14.81 25.51L14.81 25.51L14.81 25.51Q15.61 24.91 16.48 24.43L16.48 24.43L16.48 24.43Q17.35 23.95 18.23 23.65L18.23 23.65L18.23 23.65Q19.12 23.35 19.91 23.35L19.91 23.35L19.91 23.35Q20.33 22.83 20.71 22.36L20.71 22.36L20.71 22.36Q21.08 21.88 21.39 21.52L21.39 21.52L21.39 21.52Q22.44 20.27 23.22 19.05L23.22 19.05L23.22 19.05Q24.00 17.84 24.56 16.74L24.56 16.74L24.56 16.74Q25.13 15.65 25.52 14.74L25.52 14.74L25.52 14.74Q25.90 13.83 26.15 13.20L26.15 13.20L26.15 13.20Q26.10 13.23 26.03 13.24L26.03 13.24L26.03 13.24Q25.96 13.24 25.86 13.24L25.86 13.24L25.86 13.24Q25.44 13.24 25.02 13.03L25.02 13.03L25.02 13.03Q24.60 12.81 24.26 12.45L24.26 12.45L24.26 12.45Q23.93 12.08 23.71 11.59L23.71 11.59L23.71 11.59Q23.49 11.09 23.49 10.53L23.49 10.53L23.49 10.53Q23.49 10.02 23.65 9.63L23.65 9.63L23.65 9.63Q23.80 9.24 24.07 8.93L24.07 8.93L24.07 8.93Q24.33 8.61 24.66 8.35L24.66 8.35L24.66 8.35Q24.99 8.09 25.35 7.84L25.35 7.84L25.35 7.84Q25.90 7.46 26.37 7.22L26.37 7.22L26.37 7.22Q26.84 6.99 27.16 6.99L27.16 6.99L27.16 6.99Q27.54 6.99 27.96 7.13L27.96 7.13L27.96 7.13Q28.39 7.27 28.87 7.39L28.87 7.39L28.87 7.39Q29.34 7.52 29.87 7.55L29.87 7.55L29.87 7.55Q30.39 7.57 30.97 7.34L30.97 7.34L30.97 7.34Q30.77 7.53 30.56 7.65L30.56 7.65L30.56 7.65Q30.35 7.77 30.14 7.86L30.14 7.86L30.14 7.86Q29.93 7.95 29.72 8.06L29.72 8.06L29.72 8.06Q29.51 8.16 29.32 8.34ZM24.85 9.23L24.85 9.23L24.85 9.23Q24.85 10.01 25.16 10.56L25.16 10.56L25.16 10.56Q25.48 11.12 25.94 11.45L25.94 11.45L25.94 11.45Q26.39 11.77 26.90 11.87L26.90 11.87L26.90 11.87Q27.41 11.96 27.82 11.80L27.82 11.80L27.82 11.80Q27.79 11.51 27.78 11.25L27.78 11.25L27.78 11.25Q27.78 10.99 27.78 10.70L27.78 10.70L27.78 10.70Q27.78 10.32 27.78 10.02L27.78 10.02L27.78 10.02Q27.78 9.73 27.80 9.48L27.80 9.48L27.80 9.48Q27.82 9.23 27.87 9.00L27.87 9.00L27.87 9.00Q27.93 8.76 28.04 8.51L28.04 8.51L28.04 8.51Q27.87 8.41 27.59 8.31L27.59 8.31L27.59 8.31Q27.31 8.20 26.97 8.13L26.97 8.13L26.97 8.13Q26.63 8.06 26.24 8.05L26.24 8.05L26.24 8.05Q25.84 8.04 25.47 8.12L25.47 8.12L25.47 8.12Q25.13 8.29 24.99 8.55L24.99 8.55L24.99 8.55Q24.85 8.82 24.85 9.23ZM13.99 27.86L13.99 27.86L13.99 27.86Q14.50 27.93 15.13 27.66L15.13 27.66L15.13 27.66Q15.75 27.38 16.41 26.88L16.41 26.88L16.41 26.88Q17.08 26.38 17.76 25.69L17.76 25.69L17.76 25.69Q18.44 25.00 19.07 24.26L19.07 24.26L19.07 24.26Q17.93 24.26 16.91 24.62L16.91 24.62L16.91 24.62Q15.89 24.98 15.11 25.47L15.11 25.47L15.11 25.47Q14.34 25.97 13.88 26.50L13.88 26.50L13.88 26.50Q13.43 27.02 13.43 27.34L13.43 27.34L13.43 27.34Q13.43 27.64 13.61 27.75L13.61 27.75L13.61 27.75Q13.79 27.86 13.99 27.86ZM30.06 27.90L30.06 27.90L30.06 27.90Q30.44 27.61 30.88 27.22L30.88 27.22L30.88 27.22Q31.33 26.82 31.72 26.31L31.72 26.31L31.72 26.31Q32.12 25.79 32.38 25.16L32.38 25.16L32.38 25.16Q32.63 24.53 32.63 23.74L32.63 23.74L32.63 23.74Q32.63 22.89 32.31 22.15L32.31 22.15L32.31 22.15Q31.99 21.41 31.49 20.64L31.49 20.64L31.49 20.64Q31.00 19.88 30.41 19.05L30.41 19.05L30.41 19.05Q29.82 18.21 29.29 17.18L29.29 17.18L29.29 17.18Q28.76 16.14 28.35 14.85L28.35 14.85L28.35 14.85Q27.94 13.57 27.82 11.89L27.82 11.89L27.82 11.89Q27.61 12.07 27.44 12.26L27.44 12.26L27.44 12.26Q27.27 12.45 27.12 12.61L27.12 12.61L27.12 12.61Q26.96 12.78 26.81 12.91L26.81 12.91L26.81 12.91Q26.66 13.05 26.47 13.10L26.47 13.10L26.47 13.10Q26.33 13.48 26.03 14.13L26.03 14.13L26.03 14.13Q25.73 14.78 25.33 15.57L25.33 15.57L25.33 15.57Q24.92 16.37 24.44 17.23L24.44 17.23L24.44 17.23Q23.95 18.10 23.44 18.93L23.44 18.93L23.44 18.93Q22.93 19.75 22.43 20.48L22.43 20.48L22.43 20.48Q21.92 21.20 21.48 21.69L21.48 21.69L21.48 21.69Q21.32 21.88 20.94 22.34L20.94 22.34L20.94 22.34Q20.57 22.79 20.03 23.35L20.03 23.35L20.03 23.35Q21.04 23.38 22.06 23.65L22.06 23.65L22.06 23.65Q23.07 23.91 24.05 24.32L24.05 24.32L24.05 24.32Q25.02 24.72 25.91 25.22L25.91 25.22L25.91 25.22Q26.81 25.72 27.59 26.21L27.59 26.21L27.59 26.21Q28.36 26.71 28.99 27.16L28.99 27.16L28.99 27.16Q29.62 27.61 30.06 27.90ZM33.21 9.66L33.21 9.66L33.21 9.66Q33.21 10.08 33.37 10.59L33.37 10.59L33.37 10.59Q33.53 11.10 33.91 11.54L33.91 11.54L33.91 11.54Q34.29 11.98 34.90 12.29L34.90 12.29L34.90 12.29Q35.50 12.59 36.39 12.59L36.39 12.59L36.39 12.59Q36.85 12.59 37.11 12.46L37.11 12.46L37.11 12.46Q37.38 12.33 37.51 12.14L37.51 12.14L37.51 12.14Q37.63 11.96 37.67 11.75L37.67 11.75L37.67 11.75Q37.70 11.54 37.70 11.35L37.70 11.35L37.70 11.35Q37.70 10.75 37.47 10.16L37.47 10.16L37.47 10.16Q37.24 9.58 36.83 9.11L36.83 9.11L36.83 9.11Q36.43 8.65 35.88 8.37L35.88 8.37L35.88 8.37Q35.32 8.09 34.68 8.09L34.68 8.09L34.68 8.09Q34.26 8.09 33.98 8.25L33.98 8.25L33.98 8.25Q33.70 8.41 33.52 8.66L33.52 8.66L33.52 8.66Q33.35 8.90 33.28 9.18L33.28 9.18L33.28 9.18Q33.21 9.45 33.21 9.66ZM36.29 7L36.29 7L36.29 7Q36.71 7 37.19 7.18L37.19 7.18L37.19 7.18Q37.67 7.36 38.09 7.73L38.09 7.73L38.09 7.73Q38.50 8.09 38.77 8.66L38.77 8.66L38.77 8.66Q39.03 9.23 39.03 9.98L39.03 9.98L39.03 9.98Q39.03 10.42 38.83 10.88L38.83 10.88L38.83 10.88Q38.63 11.34 38.30 11.79L38.30 11.79L38.30 11.79Q37.97 12.24 37.54 12.63L37.54 12.63L37.54 12.63Q37.11 13.03 36.66 13.34L36.66 13.34L36.66 13.34Q36.20 13.64 35.75 13.82L35.75 13.82L35.75 13.82Q35.29 14 34.92 14L34.92 14L34.92 14Q34.34 14 33.82 13.76L33.82 13.76L33.82 13.76Q33.29 13.52 32.89 13.12L32.89 13.12L32.89 13.12Q32.48 12.71 32.23 12.19L32.23 12.19L32.23 12.19Q31.99 11.66 31.99 11.07L31.99 11.07L31.99 11.07Q31.99 10.28 32.42 9.54L32.42 9.54L32.42 9.54Q32.86 8.81 33.50 8.24L33.50 8.24L33.50 8.24Q34.15 7.67 34.90 7.34L34.90 7.34L34.90 7.34Q35.64 7 36.29 7ZM45.00 6.99L45.00 6.99L45.00 6.99Q45.63 6.99 46.14 7.24L46.14 7.24L46.14 7.24Q46.66 7.49 47.03 7.90L47.03 7.90L47.03 7.90Q47.40 8.32 47.61 8.86L47.61 8.86L47.61 8.86Q47.81 9.39 47.81 9.97L47.81 9.97L47.81 9.97Q47.81 10.96 47.47 11.91L47.47 11.91L47.47 11.91Q47.14 12.85 46.52 13.58L46.52 13.58L46.52 13.58Q45.89 14.31 45.02 14.75L45.02 14.75L45.02 14.75Q44.14 15.19 43.06 15.19L43.06 15.19L43.06 15.19Q42.52 15.19 42.20 15.14L42.20 15.14L42.20 15.14Q41.89 15.09 41.60 15.04L41.60 15.04L41.60 15.04Q41.31 14.98 40.97 14.93L40.97 14.93L40.97 14.93Q40.63 14.88 40.03 14.88L40.03 14.88L40.03 14.88Q39.77 14.88 39.44 15.00L39.44 15.00L39.44 15.00Q39.10 15.12 38.80 15.37L38.80 15.37L38.80 15.37Q38.50 15.62 38.28 16.00L38.28 16.00L38.28 16.00Q38.07 16.38 38.07 16.88L38.07 16.88L38.07 16.88Q38.07 17.15 38.18 17.35L38.18 17.35L38.18 17.35Q38.29 17.54 38.48 17.70L38.48 17.70L38.48 17.70Q38.67 17.85 38.91 17.95L38.91 17.95L38.91 17.95Q39.14 18.06 39.40 18.13L39.40 18.13L39.40 18.13Q39.97 18.30 40.73 18.34L40.73 18.34L40.73 18.34Q39.93 18.31 39.31 18.16L39.31 18.16L39.31 18.16Q39.05 18.09 38.79 17.98L38.79 17.98L38.79 17.98Q38.54 17.88 38.35 17.72L38.35 17.72L38.35 17.72Q38.15 17.57 38.03 17.37L38.03 17.37L38.03 17.37Q37.91 17.16 37.91 16.88L37.91 16.88L37.91 16.88Q37.91 16.41 38.21 15.92L38.21 15.92L38.21 15.92Q38.50 15.43 38.99 15.04L38.99 15.04L38.99 15.04Q39.48 14.64 40.12 14.39L40.12 14.39L40.12 14.39Q40.75 14.14 41.44 14.14L41.44 14.14L41.44 14.14Q41.96 14.14 42.27 14.20L42.27 14.20L42.27 14.20Q42.57 14.25 42.85 14.31L42.85 14.31L42.85 14.31Q43.13 14.38 43.48 14.43L43.48 14.43L43.48 14.43Q43.83 14.48 44.44 14.48L44.44 14.48L44.44 14.48Q45.07 14.48 45.47 14.28L45.47 14.28L45.47 14.28Q45.88 14.08 46.11 13.70L46.11 13.70L46.11 13.70Q46.34 13.31 46.43 12.75L46.43 12.75L46.43 12.75Q46.52 12.18 46.52 11.42L46.52 11.42L46.52 11.42Q46.52 10.75 46.27 10.15L46.27 10.15L46.27 10.15Q46.02 9.55 45.59 9.09L45.59 9.09L45.59 9.09Q45.16 8.64 44.61 8.37L44.61 8.37L44.61 8.37Q44.06 8.11 43.46 8.11L43.46 8.11L43.46 8.11Q43.09 8.11 42.85 8.18L42.85 8.18L42.85 8.18Q42.62 8.25 42.41 8.44L42.41 8.44L42.41 8.44Q42.41 8.60 42.38 9.03L42.38 9.03L42.38 9.03Q42.35 9.46 42.34 10.11L42.34 10.11L42.34 10.11Q42.34 10.75 42.38 11.58L42.38 11.58L42.38 11.58Q42.42 12.40 42.57 13.34L42.57 13.34L42.57 13.34Q42.10 13.34 41.60 13.55L41.60 13.55L41.60 13.55Q41.10 13.76 40.73 14L40.73 14L40.73 14Q40.77 13.75 40.81 13.23L40.81 13.23L40.81 13.23Q40.85 12.71 40.88 12.09L40.88 12.09L40.88 12.09Q40.91 11.47 40.90 10.79L40.90 10.79L40.90 10.79Q40.89 10.12 40.85 9.55L40.85 9.55L40.85 9.55Q40.81 8.99 40.71 8.59L40.71 8.59L40.71 8.59Q40.60 8.19 40.42 8.11L40.42 8.11L40.42 8.11Q40.18 8.06 40.00 8.09L40.00 8.09L40.00 8.09Q39.91 8.11 39.84 8.13L39.84 8.13L39.84 8.13Q40.29 7.81 40.68 7.56L40.68 7.56L40.68 7.56Q41.02 7.35 41.37 7.17L41.37 7.17L41.37 7.17Q41.72 6.99 41.94 6.99L41.94 6.99L41.94 6.99Q42.10 6.99 42.19 7.02L42.19 7.02L42.19 7.02Q42.28 7.06 42.33 7.17L42.33 7.17L42.33 7.17Q42.38 7.29 42.39 7.50L42.39 7.50L42.39 7.50Q42.41 7.70 42.41 8.04L42.41 8.04L42.41 8.04Q43.08 7.55 43.74 7.27L43.74 7.27L43.74 7.27Q44.39 6.99 45.00 6.99ZM57.78 7.01L57.78 7.01L57.78 7.01Q58.04 7.01 58.35 7.10L58.35 7.10L58.35 7.10Q58.66 7.20 58.93 7.34L58.93 7.34L58.93 7.34Q59.21 7.48 59.43 7.64L59.43 7.64L59.43 7.64Q59.65 7.81 59.78 7.97L59.78 7.97L59.78 7.97Q59.54 8.60 59.13 9.32L59.13 9.32L59.13 9.32Q58.72 10.05 58.21 10.82L58.21 10.82L58.21 10.82Q57.71 11.59 57.16 12.40L57.16 12.40L57.16 12.40Q56.62 13.20 56.10 13.97L56.10 13.97L56.10 13.97Q55.73 13.44 55.38 12.85L55.38 12.85L55.38 12.85Q55.03 12.26 54.74 11.65L54.74 11.65L54.74 11.65Q54.32 12.14 53.86 12.68L53.86 12.68L53.86 12.68Q53.40 13.22 52.98 13.89L52.98 13.89L52.98 13.89Q52.98 13.92 52.96 13.94L52.96 13.94L52.96 13.94Q52.95 13.97 52.93 14L52.93 14L52.91 14.06L52.91 14.06Q52.71 13.75 52.47 13.25L52.47 13.25L52.47 13.25Q52.23 12.75 51.94 12.21L51.94 12.21L51.94 12.21Q51.39 11.33 50.71 10.30L50.71 10.30L50.71 10.30Q50.02 9.28 49.30 8.18L49.30 8.18L49.30 8.18Q48.58 7.08 47.89 5.95L47.89 5.95L47.89 5.95Q47.19 4.82 46.66 3.72L46.66 3.72L46.66 3.72Q46.12 2.62 45.79 1.61L45.79 1.61L45.79 1.61Q45.46 0.60 45.46-0.27L45.46-0.27L45.46-0.27Q45.46-1.34 45.60-2.47L45.60-2.47L45.60-2.47Q45.74-3.60 46.06-4.66L46.06-4.66L46.06-4.66Q46.38-5.71 46.92-6.65L46.92-6.65L46.92-6.65Q47.46-7.59 48.25-8.28L48.25-8.28L48.25-8.28Q49.04-8.97 50.11-9.38L50.11-9.38L50.11-9.38Q51.18-9.79 52.58-9.79L52.58-9.79L52.58-9.79Q53.38-9.79 53.98-9.60L53.98-9.60L53.98-9.60Q54.59-9.42 55.03-9.11L55.03-9.11L55.03-9.11Q55.47-8.81 55.76-8.42L55.76-8.42L55.76-8.42Q56.06-8.04 56.25-7.63L56.25-7.63L56.25-7.63Q56.70-6.68 56.74-5.47L56.74-5.47L56.74-5.47Q56.69-6.61 56.22-7.50L56.22-7.50L56.22-7.50Q56.03-7.88 55.73-8.25L55.73-8.25L55.73-8.25Q55.43-8.62 54.98-8.91L54.98-8.91L54.98-8.91Q54.54-9.20 53.95-9.37L53.95-9.37L53.95-9.37Q53.35-9.55 52.58-9.55L52.58-9.55L52.58-9.55Q51.18-9.55 50.18-9.18L50.18-9.18L50.18-9.18Q49.18-8.81 48.50-8.18L48.50-8.18L48.50-8.18Q47.81-7.56 47.40-6.75L47.40-6.75L47.40-6.75Q46.98-5.95 46.77-5.09L46.77-5.09L46.77-5.09Q46.55-4.23 46.48-3.37L46.48-3.37L46.48-3.37Q46.41-2.51 46.41-1.79L46.41-1.79L46.41-1.79Q46.41-1.19 46.63-0.41L46.63-0.41L46.63-0.41Q46.84 0.38 47.21 1.25L47.21 1.25L47.21 1.25Q47.57 2.13 48.03 3.04L48.03 3.04L48.03 3.04Q48.48 3.96 48.97 4.82L48.97 4.82L48.97 4.82Q50.09 6.83 51.53 9.02L51.53 9.02L51.53 9.02Q51.62 8.89 51.87 8.62L51.87 8.62L51.87 8.62Q52.12 8.34 52.43 8.04L52.43 8.04L52.43 8.04Q52.74 7.73 53.06 7.45L53.06 7.45L53.06 7.45Q53.38 7.17 53.62 7.01L53.62 7.01L53.62 7.01Q53.80 7.38 54.12 7.95L54.12 7.95L54.12 7.95Q54.43 8.53 54.74 9.02L54.74 9.02L54.74 9.02Q54.95 8.78 55.31 8.43L55.31 8.43L55.31 8.43Q55.66 8.09 56.08 7.78L56.08 7.78L56.08 7.78Q56.50 7.46 56.95 7.24L56.95 7.24L56.95 7.24Q57.39 7.01 57.78 7.01ZM53.62 12.61L53.62 12.61L53.62 12.61Q54.12 12.11 54.59 11.42L54.59 11.42L54.59 11.42Q54.52 11.26 54.38 10.97L54.38 10.97L54.38 10.97Q54.25 10.68 54.06 10.34L54.06 10.34L54.06 10.34Q53.87 10.00 53.67 9.65L53.67 9.65L53.67 9.65Q53.47 9.30 53.26 9.02L53.26 9.02L53.26 9.02Q53.06 8.74 52.88 8.55L52.88 8.55L52.88 8.55Q52.70 8.37 52.58 8.37L52.58 8.37L52.58 8.37Q52.49 8.37 52.37 8.45L52.37 8.45L52.37 8.45Q52.25 8.53 52.12 8.64L52.12 8.64L52.12 8.64Q52.00 8.76 51.87 8.90L51.87 8.90L51.87 8.90Q51.74 9.04 51.62 9.17L51.62 9.17L51.62 9.17Q52.11 9.97 52.62 10.90L52.62 10.90L52.62 10.90Q53.13 11.83 53.62 12.61ZM56.74 12.38L56.74 12.38L56.74 12.38Q56.90 12.22 57.16 11.85L57.16 11.85L57.16 11.85Q57.41 11.48 57.66 11.02L57.66 11.02L57.66 11.02Q57.90 10.56 58.09 10.06L58.09 10.06L58.09 10.06Q58.27 9.56 58.27 9.17L58.27 9.17L58.27 9.17Q58.27 8.82 58.07 8.56L58.07 8.56L58.07 8.56Q57.88 8.30 57.60 8.13L57.60 8.13L57.60 8.13Q57.33 7.97 57.05 7.89L57.05 7.89L57.05 7.89Q56.77 7.81 56.59 7.81L56.59 7.81L56.59 7.81Q56.41 7.81 56.14 7.99L56.14 7.99L56.14 7.99Q55.87 8.18 55.61 8.41L55.61 8.41L55.61 8.41Q55.34 8.64 55.13 8.86L55.13 8.86L55.13 8.86Q54.91 9.09 54.81 9.17L54.81 9.17L54.81 9.17Q54.96 9.46 55.22 9.93L55.22 9.93L55.22 9.93Q55.47 10.39 55.75 10.86L55.75 10.86L55.75 10.86Q56.03 11.33 56.29 11.75L56.29 11.75L56.29 11.75Q56.56 12.17 56.74 12.38ZM61.59 9.66L61.59 9.66L61.59 9.66Q61.59 10.08 61.75 10.59L61.75 10.59L61.75 10.59Q61.91 11.10 62.29 11.54L62.29 11.54L62.29 11.54Q62.66 11.98 63.27 12.29L63.27 12.29L63.27 12.29Q63.88 12.59 64.76 12.59L64.76 12.59L64.76 12.59Q65.23 12.59 65.49 12.46L65.49 12.46L65.49 12.46Q65.76 12.33 65.88 12.14L65.88 12.14L65.88 12.14Q66.01 11.96 66.05 11.75L66.05 11.75L66.05 11.75Q66.08 11.54 66.08 11.35L66.08 11.35L66.08 11.35Q66.08 10.75 65.85 10.16L65.85 10.16L65.85 10.16Q65.62 9.58 65.21 9.11L65.21 9.11L65.21 9.11Q64.81 8.65 64.25 8.37L64.25 8.37L64.25 8.37Q63.70 8.09 63.06 8.09L63.06 8.09L63.06 8.09Q62.64 8.09 62.36 8.25L62.36 8.25L62.36 8.25Q62.08 8.41 61.90 8.66L61.90 8.66L61.90 8.66Q61.73 8.90 61.66 9.18L61.66 9.18L61.66 9.18Q61.59 9.45 61.59 9.66ZM64.67 7L64.67 7L64.67 7Q65.09 7 65.57 7.18L65.57 7.18L65.57 7.18Q66.05 7.36 66.47 7.73L66.47 7.73L66.47 7.73Q66.88 8.09 67.14 8.66L67.14 8.66L67.14 8.66Q67.41 9.23 67.41 9.98L67.41 9.98L67.41 9.98Q67.41 10.42 67.21 10.88L67.21 10.88L67.21 10.88Q67.00 11.34 66.67 11.79L66.67 11.79L66.67 11.79Q66.35 12.24 65.92 12.63L65.92 12.63L65.92 12.63Q65.49 13.03 65.04 13.34L65.04 13.34L65.04 13.34Q64.58 13.64 64.13 13.82L64.13 13.82L64.13 13.82Q63.67 14 63.29 14L63.29 14L63.29 14Q62.72 14 62.20 13.76L62.20 13.76L62.20 13.76Q61.67 13.52 61.26 13.12L61.26 13.12L61.26 13.12Q60.86 12.71 60.61 12.19L60.61 12.19L60.61 12.19Q60.37 11.66 60.37 11.07L60.37 11.07L60.37 11.07Q60.37 10.28 60.80 9.54L60.80 9.54L60.80 9.54Q61.24 8.81 61.88 8.24L61.88 8.24L61.88 8.24Q62.52 7.67 63.27 7.34L63.27 7.34L63.27 7.34Q64.02 7 64.67 7ZM73.05 7.06L73.05 7.06L73.05 7.06Q73.26 7.06 73.50 7.07L73.50 7.07L73.50 7.07Q73.74 7.08 73.89 7.15L73.89 7.15L73.89 7.15Q73.74 7.36 73.60 7.69L73.60 7.69L73.60 7.69Q73.46 8.01 73.35 8.30L73.35 8.30L73.35 8.30Q73.21 8.67 73.09 9.03L73.09 9.03L73.09 9.03Q73.00 8.97 72.84 8.92L72.84 8.92L72.84 8.92Q72.72 8.88 72.53 8.83L72.53 8.83L72.53 8.83Q72.34 8.79 72.07 8.79L72.07 8.79L72.07 8.79Q71.65 8.79 71.38 9.02L71.38 9.02L71.38 9.02Q71.11 9.25 70.94 9.63L70.94 9.63L70.94 9.63Q70.77 10.00 70.68 10.44L70.68 10.44L70.68 10.44Q70.59 10.89 70.55 11.31L70.55 11.31L70.55 11.31Q70.55 12.12 70.57 12.57L70.57 12.57L70.57 12.57Q70.59 13.02 70.59 13.30L70.59 13.30L70.59 13.30Q70.41 13.34 70.19 13.42L70.19 13.42L70.19 13.42Q69.97 13.50 69.75 13.60L69.75 13.60L69.75 13.60Q69.52 13.71 69.31 13.81L69.31 13.81L69.31 13.81Q69.09 13.92 68.92 14.01L68.92 14.01L68.92 14.01Q68.99 13.38 69.04 12.71L69.04 12.71L69.04 12.71Q69.09 12.04 69.11 11.40L69.11 11.40L69.11 11.40Q69.13 10.75 69.11 10.17L69.11 10.17L69.11 10.17Q69.09 9.59 69.03 9.15L69.03 9.15L69.03 9.15Q68.96 8.71 68.87 8.43L68.87 8.43L68.87 8.43Q68.77 8.16 68.63 8.13L68.63 8.13L68.63 8.13Q68.56 8.12 68.47 8.12L68.47 8.12L68.47 8.12Q68.39 8.12 68.31 8.12L68.31 8.12L68.31 8.12Q68.21 8.12 68.11 8.13L68.11 8.13L68.11 8.13Q68.49 8.01 68.87 7.84L68.87 7.84L68.87 7.84Q69.19 7.69 69.58 7.48L69.58 7.48L69.58 7.48Q69.97 7.28 70.34 7.01L70.34 7.01L70.34 7.01Q70.38 7.20 70.41 7.51L70.41 7.51L70.41 7.51Q70.43 7.83 70.46 8.22L70.46 8.22L70.46 8.22Q70.49 8.62 70.50 9.07L70.50 9.07L70.50 9.07Q70.52 9.52 70.55 9.95L70.55 9.95L70.55 9.95Q70.76 9.48 71.04 8.97L71.04 8.97L71.04 8.97Q71.32 8.46 71.64 8.03L71.64 8.03L71.64 8.03Q71.96 7.60 72.32 7.33L72.32 7.33L72.32 7.33Q72.69 7.06 73.05 7.06ZM78.51 10.23L78.51 10.23L78.51 10.23Q78.89 10.71 79.39 11.25L79.39 11.25L79.39 11.25Q79.90 11.79 80.40 12.24L80.40 12.24L80.40 12.24Q80.91 12.70 81.34 12.98L81.34 12.98L81.34 12.98Q81.77 13.27 82.01 13.26L82.01 13.26L82.01 13.26Q81.77 13.31 81.52 13.40L81.52 13.40L81.52 13.40Q81.27 13.50 81.02 13.60L81.02 13.60L81.02 13.60Q80.77 13.71 80.53 13.82L80.53 13.82L80.53 13.82Q80.30 13.94 80.12 14.04L80.12 14.04L80.12 14.04Q79.83 13.86 79.39 13.44L79.39 13.44L79.39 13.44Q78.95 13.02 78.46 12.51L78.46 12.51L78.46 12.51Q77.98 12.00 77.52 11.48L77.52 11.48L77.52 11.48Q77.06 10.96 76.73 10.58L76.73 10.58L76.73 10.58Q76.62 10.63 76.49 10.61L76.49 10.61L76.49 10.61Q76.36 10.58 76.24 10.58L76.24 10.58L76.24 10.58Q76.30 11.17 76.31 11.84L76.31 11.84L76.31 11.84Q76.31 12.52 76.34 13.03L76.34 13.03L76.34 13.03Q76.19 13.12 75.96 13.23L75.96 13.23L75.96 13.23Q75.73 13.34 75.48 13.47L75.48 13.47L75.48 13.47Q75.24 13.59 75.01 13.74L75.01 13.74L75.01 13.74Q74.79 13.89 74.65 14.03L74.65 14.03L74.65 14.03Q74.66 13.83 74.67 13.24L74.67 13.24L74.67 13.24Q74.68 12.66 74.70 11.79L74.70 11.79L74.70 11.79Q74.72 10.93 74.73 9.88L74.73 9.88L74.73 9.88Q74.75 8.82 74.76 7.68L74.76 7.68L74.76 7.68Q74.77 6.54 74.79 5.40L74.79 5.40L74.79 5.40Q74.80 4.26 74.82 3.23L74.82 3.23L74.82 3.23Q74.83 2.20 74.84 1.36L74.84 1.36L74.84 1.36Q74.84 0.52 74.84-0.01L74.84-0.01L74.84-0.01Q74.84-1.06 74.84-2.14L74.84-2.14L74.84-2.14Q74.83-3.21 74.80-4.16L74.80-4.16L74.80-4.16Q74.77-5.12 74.73-5.88L74.73-5.88L74.73-5.88Q74.69-6.64 74.62-7.06L74.62-7.06L74.62-7.06Q75.03-7.06 75.48-7.26L75.48-7.26L75.48-7.26Q75.94-7.46 76.42-7.77L76.42-7.77L76.42-7.77Q76.90-8.08 77.41-8.44L77.41-8.44L77.41-8.44Q77.92-8.81 78.45-9.11L78.45-9.11L78.45-9.11Q78.97-9.42 79.51-9.63L79.51-9.63L79.51-9.63Q80.04-9.83 80.57-9.83L80.57-9.83L80.57-9.83Q81.33-9.83 81.85-9.58L81.85-9.58L81.85-9.58Q82.38-9.34 82.70-8.94L82.70-8.94L82.70-8.94Q83.03-8.54 83.19-8.04L83.19-8.04L83.19-8.04Q83.34-7.53 83.34-7L83.34-7L83.34-7Q83.34-5.68 82.91-4.56L82.91-4.56L82.91-4.56Q82.49-3.44 81.80-2.51L81.80-2.51L81.80-2.51Q81.10-1.58 80.21-0.82L80.21-0.82L80.21-0.82Q79.32-0.06 78.40 0.53L78.40 0.53L78.40 0.53Q76.23 1.92 73.47 2.81L73.47 2.81L73.47 2.81Q76.19 1.92 78.33 0.53L78.33 0.53L78.33 0.53Q79.24-0.06 80.11-0.82L80.11-0.82L80.11-0.82Q80.99-1.58 81.67-2.51L81.67-2.51L81.67-2.51Q82.35-3.44 82.77-4.56L82.77-4.56L82.77-4.56Q83.19-5.68 83.19-7L83.19-7L83.19-7Q83.19-7.53 83.06-8.02L83.06-8.02L83.06-8.02Q82.92-8.50 82.61-8.87L82.61-8.87L82.61-8.87Q82.31-9.24 81.80-9.46L81.80-9.46L81.80-9.46Q81.30-9.69 80.57-9.69L80.57-9.69L80.57-9.69Q79.81-9.69 79.15-9.35L79.15-9.35L79.15-9.35Q78.48-9.02 77.97-8.56L77.97-8.56L77.97-8.56Q77.46-8.11 77.13-7.63L77.13-7.63L77.13-7.63Q76.79-7.15 76.69-6.87L76.69-6.87L76.69-6.87Q76.51-6.38 76.41-5.64L76.41-5.64L76.41-5.64Q76.31-4.90 76.27-4.00L76.27-4.00L76.27-4.00Q76.22-3.09 76.21-2.08L76.21-2.08L76.21-2.08Q76.20-1.06 76.20-0.01L76.20-0.01L76.20-0.01Q76.20 2.11 76.19 4.44L76.19 4.44L76.19 4.44Q76.17 6.76 76.20 9.32L76.20 9.32L76.20 9.32Q76.50 9.02 76.92 8.67L76.92 8.67L76.92 8.67Q77.34 8.32 77.82 7.99L77.82 7.99L77.82 7.99Q78.30 7.66 78.82 7.40L78.82 7.40L78.82 7.40Q79.34 7.14 79.81 7.03L79.81 7.03L79.81 7.03Q80.15 7.10 80.40 7.46L80.40 7.46L80.40 7.46Q80.65 7.81 80.65 8.39L80.65 8.39L80.65 8.39Q80.65 8.64 80.48 8.89L80.48 8.89L80.48 8.89Q80.30 9.14 80.01 9.39L80.01 9.39L80.01 9.39Q79.72 9.63 79.33 9.85L79.33 9.85L79.33 9.85Q78.95 10.07 78.51 10.23ZM76.24 10.01L76.24 10.37L76.24 10.37Q77.01 10.42 77.56 10.31L77.56 10.31L77.56 10.31Q78.11 10.21 78.44 10.00L78.44 10.00L78.44 10.00Q78.76 9.80 78.88 9.53L78.88 9.53L78.88 9.53Q79.00 9.27 78.93 9.00L78.93 9.00L78.93 9.00Q78.90 8.88 78.84 8.72L78.84 8.72L78.84 8.72Q78.78 8.57 78.70 8.43L78.70 8.43L78.70 8.43Q78.62 8.30 78.53 8.21L78.53 8.21L78.53 8.21Q78.43 8.12 78.32 8.09L78.32 8.09L78.32 8.09Q78.08 8.04 77.79 8.21L77.79 8.21L77.79 8.21Q77.50 8.39 77.22 8.67L77.22 8.67L77.22 8.67Q76.93 8.96 76.67 9.32L76.67 9.32L76.67 9.32Q76.41 9.69 76.24 10.01L76.24 10.01ZM84.64 10.86L84.64 10.86L84.64 10.86Q84.38 10.86 83.99 10.81L83.99 10.81L83.99 10.81Q83.61 10.75 83.25 10.58L83.25 10.58L83.25 10.58Q82.89 10.40 82.64 10.08L82.64 10.08L82.64 10.08Q82.39 9.76 82.39 9.23L82.39 9.23L82.39 9.23Q82.39 8.81 82.61 8.48L82.61 8.48L82.61 8.48Q82.82 8.15 83.16 7.90L83.16 7.90L83.16 7.90Q83.50 7.64 83.92 7.48L83.92 7.48L83.92 7.48Q84.34 7.31 84.73 7.20L84.73 7.20L84.73 7.20Q85.12 7.08 85.45 7.04L85.45 7.04L85.45 7.04Q85.78 6.99 85.95 6.99L85.95 6.99L85.95 6.99Q86.07 6.99 86.26 6.99L86.26 6.99L86.26 6.99Q86.45 7 86.64 7.02L86.64 7.02L86.64 7.02Q86.83 7.04 87.00 7.06L87.00 7.06L87.00 7.06Q87.18 7.08 87.26 7.13L87.26 7.13L87.26 7.13Q87.21 7.31 87.14 7.54L87.14 7.54L87.14 7.54Q87.08 7.77 87.02 8.02L87.02 8.02L87.02 8.02Q86.97 8.26 86.93 8.50L86.93 8.50L86.93 8.50Q86.90 8.75 86.90 8.96L86.90 8.96L86.90 8.96Q86.80 8.75 86.63 8.50L86.63 8.50L86.63 8.50Q86.46 8.26 86.23 8.04L86.23 8.04L86.23 8.04Q86.00 7.83 85.71 7.69L85.71 7.69L85.71 7.69Q85.41 7.55 85.06 7.55L85.06 7.55L85.06 7.55Q84.80 7.55 84.59 7.63L84.59 7.63L84.59 7.63Q84.39 7.71 84.25 7.85L84.25 7.85L84.25 7.85Q84.10 7.99 84.02 8.16L84.02 8.16L84.02 8.16Q83.94 8.32 83.94 8.47L83.94 8.47L83.94 8.47Q83.94 8.79 84.10 9.04L84.10 9.04L84.10 9.04Q84.25 9.28 84.50 9.45L84.50 9.45L84.50 9.45Q84.76 9.62 85.08 9.70L85.08 9.70L85.08 9.70Q85.41 9.79 85.76 9.79L85.76 9.79L85.76 9.79Q86.34 9.79 86.75 9.90L86.75 9.90L86.75 9.90Q87.16 10.01 87.42 10.19L87.42 10.19L87.42 10.19Q87.68 10.37 87.80 10.61L87.80 10.61L87.80 10.61Q87.92 10.84 87.92 11.06L87.92 11.06L87.92 11.06Q87.92 11.80 87.51 12.36L87.51 12.36L87.51 12.36Q87.09 12.91 86.50 13.27L86.50 13.27L86.50 13.27Q85.90 13.64 85.25 13.82L85.25 13.82L85.25 13.82Q84.60 14 84.13 14L84.13 14L84.13 14Q83.41 14 82.85 13.82L82.85 13.82L82.85 13.82Q82.29 13.64 82.07 13.44L82.07 13.44L82.07 13.44Q82.22 13.20 82.33 12.77L82.33 12.77L82.33 12.77Q82.45 12.33 82.49 11.76L82.49 11.76L82.49 11.76Q82.67 12.11 82.98 12.40L82.98 12.40L82.98 12.40Q83.29 12.68 83.66 12.88L83.66 12.88L83.66 12.88Q84.04 13.08 84.47 13.19L84.47 13.19L84.47 13.19Q84.90 13.30 85.34 13.30L85.34 13.30L85.34 13.30Q85.50 13.30 85.69 13.26L85.69 13.26L85.69 13.26Q85.89 13.22 86.06 13.12L86.06 13.12L86.06 13.12Q86.23 13.02 86.34 12.85L86.34 12.85L86.34 12.85Q86.46 12.68 86.46 12.42L86.46 12.42L86.46 12.42Q86.46 12.17 86.34 11.89L86.34 11.89L86.34 11.89Q86.21 11.62 85.97 11.39L85.97 11.39L85.97 11.39Q85.74 11.16 85.40 11.01L85.40 11.01L85.40 11.01Q85.06 10.86 84.64 10.86ZM104.93 12.18L104.93 12.18L104.93 12.18Q105.01 12.32 105.11 12.47L105.11 12.47L105.11 12.47Q105.20 12.61 105.32 12.72L105.32 12.72L105.32 12.72Q105.45 12.82 105.64 12.86L105.64 12.86L105.64 12.86Q105.83 12.89 106.11 12.80L106.11 12.80L106.11 12.80Q105.48 13.16 104.87 13.45L104.87 13.45L104.87 13.45Q104.26 13.73 103.78 14.03L103.78 14.03L103.78 14.03Q103.40 13.85 103.31 13.40L103.31 13.40L103.31 13.40Q103.22 12.96 103.22 12.22L103.22 12.22L103.22 12.22Q102.96 12.43 102.66 12.73L102.66 12.73L102.66 12.73Q102.37 13.03 102.02 13.31L102.02 13.31L102.02 13.31Q101.67 13.59 101.25 13.80L101.25 13.80L101.25 13.80Q100.83 14 100.31 14L100.31 14L100.31 14Q100.16 14 99.94 13.94L99.94 13.94L99.94 13.94Q99.72 13.87 99.50 13.74L99.50 13.74L99.50 13.74Q99.27 13.61 99.08 13.39L99.08 13.39L99.08 13.39Q98.88 13.17 98.76 12.87L98.76 12.87L98.76 12.87Q98.73 12.70 98.71 12.46L98.71 12.46L98.71 12.46Q98.70 12.22 98.69 11.98L98.69 11.98L98.69 11.98Q98.67 11.73 98.66 11.49L98.66 11.49L98.66 11.49Q98.66 11.26 98.66 11.09L98.66 11.09L98.66 11.09Q98.66 10.50 98.67 10.02L98.67 10.02L98.67 10.02Q98.69 9.55 98.66 9.18L98.66 9.18L98.66 9.18Q98.63 8.82 98.53 8.58L98.53 8.58L98.53 8.58Q98.43 8.34 98.21 8.23L98.21 8.23L98.21 8.23Q98.04 8.16 97.87 8.13L97.87 8.13L97.87 8.13Q97.79 8.12 97.72 8.11L97.72 8.11L97.72 8.11Q98.03 8.01 98.38 7.85L98.38 7.85L98.38 7.85Q98.67 7.73 99.03 7.52L99.03 7.52L99.03 7.52Q99.39 7.32 99.75 7.04L99.75 7.04L99.75 7.04Q100.02 7.11 100.11 7.43L100.11 7.43L100.11 7.43Q100.20 7.74 100.20 8.21L100.20 8.21L100.20 8.21Q100.20 8.68 100.16 9.25L100.16 9.25L100.16 9.25Q100.11 9.81 100.11 10.37L100.11 10.37L100.11 10.37Q100.11 10.82 100.19 11.22L100.19 11.22L100.19 11.22Q100.27 11.62 100.46 11.92L100.46 11.92L100.46 11.92Q100.65 12.22 100.97 12.40L100.97 12.40L100.97 12.40Q101.30 12.59 101.82 12.59L101.82 12.59L101.82 12.59Q102.24 12.59 102.61 12.39L102.61 12.39L102.61 12.39Q102.98 12.19 103.22 11.98L103.22 11.98L103.22 11.98Q103.26 11.66 103.27 11.37L103.27 11.37L103.27 11.37Q103.28 11.07 103.28 10.75L103.28 10.75L103.28 10.75Q103.28 10.22 103.29 9.79L103.29 9.79L103.29 9.79Q103.31 9.35 103.28 9.03L103.28 9.03L103.28 9.03Q103.26 8.71 103.20 8.50L103.20 8.50L103.20 8.50Q103.14 8.30 102.98 8.23L102.98 8.23L102.98 8.23Q102.90 8.19 102.78 8.18L102.78 8.18L102.78 8.18Q102.66 8.16 102.55 8.15L102.55 8.15L102.55 8.15Q102.41 8.13 102.28 8.13L102.28 8.13L102.28 8.13Q102.77 7.99 103.24 7.81L103.24 7.81L103.24 7.81Q103.63 7.66 104.05 7.45L104.05 7.45L104.05 7.45Q104.48 7.24 104.78 6.99L104.78 6.99L104.78 6.99Q104.78 7.15 104.76 7.56L104.76 7.56L104.76 7.56Q104.75 7.97 104.74 8.50L104.74 8.50L104.74 8.50Q104.73 9.03 104.73 9.63L104.73 9.63L104.73 9.63Q104.72 10.22 104.74 10.74L104.74 10.74L104.74 10.74Q104.76 11.26 104.80 11.65L104.80 11.65L104.80 11.65Q104.85 12.04 104.93 12.18ZM111.52 6.99L111.52 6.99L111.52 6.99Q112.15 6.99 112.67 7.24L112.67 7.24L112.67 7.24Q113.19 7.49 113.56 7.90L113.56 7.90L113.56 7.90Q113.93 8.32 114.13 8.86L114.13 8.86L114.13 8.86Q114.34 9.39 114.34 9.97L114.34 9.97L114.34 9.97Q114.34 10.96 114.00 11.91L114.00 11.91L114.00 11.91Q113.67 12.85 113.04 13.58L113.04 13.58L113.04 13.58Q112.42 14.31 111.54 14.75L111.54 14.75L111.54 14.75Q110.67 15.19 109.59 15.19L109.59 15.19L109.59 15.19Q109.05 15.19 108.73 15.14L108.73 15.14L108.73 15.14Q108.42 15.09 108.13 15.04L108.13 15.04L108.13 15.04Q107.84 14.98 107.50 14.93L107.50 14.93L107.50 14.93Q107.16 14.88 106.55 14.88L106.55 14.88L106.55 14.88Q106.30 14.88 105.97 15.00L105.97 15.00L105.97 15.00Q105.63 15.12 105.33 15.37L105.33 15.37L105.33 15.37Q105.03 15.62 104.81 16.00L104.81 16.00L104.81 16.00Q104.59 16.38 104.59 16.88L104.59 16.88L104.59 16.88Q104.59 17.15 104.71 17.35L104.71 17.35L104.71 17.35Q104.82 17.54 105.01 17.70L105.01 17.70L105.01 17.70Q105.20 17.85 105.43 17.95L105.43 17.95L105.43 17.95Q105.67 18.06 105.92 18.13L105.92 18.13L105.92 18.13Q106.50 18.30 107.25 18.34L107.25 18.34L107.25 18.34Q106.46 18.31 105.84 18.16L105.84 18.16L105.84 18.16Q105.57 18.09 105.32 17.98L105.32 17.98L105.32 17.98Q105.07 17.88 104.87 17.72L104.87 17.72L104.87 17.72Q104.68 17.57 104.56 17.37L104.56 17.37L104.56 17.37Q104.44 17.16 104.44 16.88L104.44 16.88L104.44 16.88Q104.44 16.41 104.73 15.92L104.73 15.92L104.73 15.92Q105.03 15.43 105.52 15.04L105.52 15.04L105.52 15.04Q106.01 14.64 106.64 14.39L106.64 14.39L106.64 14.39Q107.28 14.14 107.97 14.14L107.97 14.14L107.97 14.14Q108.49 14.14 108.79 14.20L108.79 14.20L108.79 14.20Q109.10 14.25 109.38 14.31L109.38 14.31L109.38 14.31Q109.66 14.38 110.01 14.43L110.01 14.43L110.01 14.43Q110.36 14.48 110.96 14.48L110.96 14.48L110.96 14.48Q111.59 14.48 112 14.28L112 14.28L112 14.28Q112.41 14.08 112.64 13.70L112.64 13.70L112.64 13.70Q112.87 13.31 112.96 12.75L112.96 12.75L112.96 12.75Q113.05 12.18 113.05 11.42L113.05 11.42L113.05 11.42Q113.05 10.75 112.80 10.15L112.80 10.15L112.80 10.15Q112.55 9.55 112.12 9.09L112.12 9.09L112.12 9.09Q111.69 8.64 111.14 8.37L111.14 8.37L111.14 8.37Q110.59 8.11 109.98 8.11L109.98 8.11L109.98 8.11Q109.62 8.11 109.38 8.18L109.38 8.18L109.38 8.18Q109.14 8.25 108.93 8.44L108.93 8.44L108.93 8.44Q108.93 8.60 108.91 9.03L108.91 9.03L108.91 9.03Q108.88 9.46 108.87 10.11L108.87 10.11L108.87 10.11Q108.86 10.75 108.91 11.58L108.91 11.58L108.91 11.58Q108.95 12.40 109.10 13.34L109.10 13.34L109.10 13.34Q108.63 13.34 108.13 13.55L108.13 13.55L108.13 13.55Q107.63 13.76 107.25 14L107.25 14L107.25 14Q107.30 13.75 107.34 13.23L107.34 13.23L107.34 13.23Q107.38 12.71 107.41 12.09L107.41 12.09L107.41 12.09Q107.44 11.47 107.43 10.79L107.43 10.79L107.43 10.79Q107.42 10.12 107.38 9.55L107.38 9.55L107.38 9.55Q107.34 8.99 107.23 8.59L107.23 8.59L107.23 8.59Q107.13 8.19 106.95 8.11L106.95 8.11L106.95 8.11Q106.71 8.06 106.53 8.09L106.53 8.09L106.53 8.09Q106.44 8.11 106.37 8.13L106.37 8.13L106.37 8.13Q106.82 7.81 107.21 7.56L107.21 7.56L107.21 7.56Q107.55 7.35 107.90 7.17L107.90 7.17L107.90 7.17Q108.25 6.99 108.47 6.99L108.47 6.99L108.47 6.99Q108.63 6.99 108.72 7.02L108.72 7.02L108.72 7.02Q108.81 7.06 108.86 7.17L108.86 7.17L108.86 7.17Q108.91 7.29 108.92 7.50L108.92 7.50L108.92 7.50Q108.93 7.70 108.93 8.04L108.93 8.04L108.93 8.04Q109.61 7.55 110.26 7.27L110.26 7.27L110.26 7.27Q110.92 6.99 111.52 6.99ZM117.73-6.83L117.73-6.83L117.73-6.83Q117.56-6.37 117.47-5.64L117.47-5.64L117.47-5.64Q117.38-4.90 117.33-4.00L117.33-4.00L117.33-4.00Q117.29-3.09 117.28-2.07L117.28-2.07L117.28-2.07Q117.28-1.04 117.28 0.01L117.28 0.01L117.28 0.01Q117.28 0.71 117.26 1.80L117.26 1.80L117.26 1.80Q117.24 2.88 117.21 4.11L117.21 4.11L117.21 4.11Q117.19 5.33 117.18 6.59L117.18 6.59L117.18 6.59Q117.17 7.84 117.17 8.90L117.17 8.90L117.17 8.90Q117.18 9.95 117.21 10.70L117.21 10.70L117.21 10.70Q117.25 11.45 117.33 11.65L117.33 11.65L117.33 11.65Q117.50 12.03 117.78 12.36L117.78 12.36L117.78 12.36Q118.06 12.68 118.59 12.73L118.59 12.73L118.59 12.73Q118.06 13.12 117.66 13.44L117.66 13.44L117.66 13.44Q117.25 13.76 116.91 14.10L116.91 14.10L116.91 14.10Q116.65 13.96 116.44 13.74L116.44 13.74L116.44 13.74Q116.23 13.52 116.08 13.29L116.08 13.29L116.08 13.29Q115.93 13.05 115.84 12.82L115.84 12.82L115.84 12.82Q115.75 12.59 115.74 12.40L115.74 12.40L115.74 12.40Q115.72 12.05 115.72 11.19L115.72 11.19L115.72 11.19Q115.72 10.33 115.73 9.19L115.73 9.19L115.73 9.19Q115.74 8.05 115.76 6.73L115.76 6.73L115.76 6.73Q115.78 5.42 115.79 4.16L115.79 4.16L115.79 4.16Q115.81 2.90 115.81 1.81L115.81 1.81L115.81 1.81Q115.82 0.71 115.82 0.01L115.82 0.01L115.82 0.01Q115.82-1.55 115.83-2.70L115.83-2.70L115.83-2.70Q115.84-3.84 115.81-4.66L115.81-4.66L115.81-4.66Q115.79-5.49 115.74-6.04L115.74-6.04L115.74-6.04Q115.70-6.59 115.60-6.99L115.60-6.99L115.60-6.99Q116.02-6.99 116.47-7.20L116.47-7.20L116.47-7.20Q116.91-7.41 117.38-7.71L117.38-7.71L117.38-7.71Q117.85-8.02 118.35-8.39L118.35-8.39L118.35-8.39Q118.85-8.75 119.36-9.06L119.36-9.06L119.36-9.06Q119.88-9.37 120.41-9.58L120.41-9.58L120.41-9.58Q120.95-9.79 121.49-9.79L121.49-9.79L121.49-9.79Q122.26-9.79 122.80-9.54L122.80-9.54L122.80-9.54Q123.34-9.30 123.68-8.90L123.68-8.90L123.68-8.90Q124.01-8.50 124.17-7.99L124.17-7.99L124.17-7.99Q124.32-7.48 124.32-6.93L124.32-6.93L124.32-6.93Q124.32-5.61 123.90-4.50L123.90-4.50L123.90-4.50Q123.48-3.39 122.79-2.46L122.79-2.46L122.79-2.46Q122.09-1.54 121.21-0.79L121.21-0.79L121.21-0.79Q120.33-0.04 119.41 0.55L119.41 0.55L119.41 0.55Q117.25 1.92 114.51 2.77L114.51 2.77L114.51 2.77Q117.21 1.90 119.34 0.53L119.34 0.53L119.34 0.53Q120.23-0.06 121.10-0.80L121.10-0.80L121.10-0.80Q121.97-1.55 122.65-2.48L122.65-2.48L122.65-2.48Q123.34-3.40 123.75-4.52L123.75-4.52L123.75-4.52Q124.17-5.63 124.17-6.93L124.17-6.93L124.17-6.93Q124.17-7.45 124.04-7.94L124.04-7.94L124.04-7.94Q123.91-8.43 123.61-8.81L123.61-8.81L123.61-8.81Q123.30-9.18 122.78-9.41L122.78-9.41L122.78-9.41Q122.26-9.63 121.49-9.63L121.49-9.63L121.49-9.63Q120.69-9.63 120.03-9.31L120.03-9.31L120.03-9.31Q119.36-8.99 118.88-8.53L118.88-8.53L118.88-8.53Q118.40-8.08 118.10-7.60L118.10-7.60L118.10-7.60Q117.80-7.13 117.73-6.83ZM122.44 5.24L122.44 5.24L122.44 5.24Q122.26 5.38 122.08 5.53L122.08 5.53L122.08 5.53Q121.93 5.67 121.74 5.85L121.74 5.85L121.74 5.85Q121.55 6.03 121.39 6.23L121.39 6.23L121.39 6.23Q121.24 5.98 121.07 5.80L121.07 5.80L121.07 5.80Q120.90 5.61 120.75 5.49L120.75 5.49L120.75 5.49Q120.58 5.33 120.41 5.24L120.41 5.24L120.41 5.24Q120.60 5.10 120.76 4.94L120.76 4.94L120.76 4.94Q120.92 4.80 121.09 4.62L121.09 4.62L121.09 4.62Q121.25 4.44 121.39 4.23L121.39 4.23L121.39 4.23Q121.55 4.47 121.73 4.65L121.73 4.65L121.73 4.65Q121.91 4.84 122.07 4.97L122.07 4.97L122.07 4.97Q122.25 5.12 122.44 5.24ZM120.19 8.12L120.19 8.12L120.19 8.12Q120.53 7.98 120.83 7.88L120.83 7.88L120.83 7.88Q121.13 7.77 121.40 7.65L121.40 7.65L121.40 7.65Q121.67 7.53 121.93 7.38L121.93 7.38L121.93 7.38Q122.19 7.24 122.44 7.01L122.44 7.01L122.44 7.01Q122.56 7.39 122.54 7.93L122.54 7.93L122.54 7.93Q122.53 8.47 122.48 9.06L122.48 9.06L122.48 9.06Q122.43 9.66 122.42 10.26L122.42 10.26L122.42 10.26Q122.40 10.86 122.52 11.35L122.52 11.35L122.52 11.35Q122.64 11.84 122.94 12.17L122.94 12.17L122.94 12.17Q123.24 12.50 123.84 12.56L123.84 12.56L123.84 12.56Q123.24 12.95 122.81 13.30L122.81 13.30L122.81 13.30Q122.39 13.65 121.97 14.01L121.97 14.01L121.97 14.01Q121.84 13.96 121.69 13.89L121.69 13.89L121.69 13.89Q121.53 13.82 121.39 13.69L121.39 13.69L121.39 13.69Q121.25 13.55 121.15 13.35L121.15 13.35L121.15 13.35Q121.04 13.15 121.03 12.82L121.03 12.82L121.03 12.82Q121.04 11.87 121.07 11.01L121.07 11.01L121.07 11.01Q121.10 10.15 121.04 9.50L121.04 9.50L121.04 9.50Q120.99 8.85 120.80 8.48L120.80 8.48L120.80 8.48Q120.61 8.11 120.19 8.12ZM134.53 7L134.53 7L134.53 7Q135.16 7 135.67 7.25L135.67 7.25L135.67 7.25Q136.19 7.50 136.57 7.92L136.57 7.92L136.57 7.92Q136.95 8.33 137.15 8.86L137.15 8.86L137.15 8.86Q137.35 9.39 137.35 9.95L137.35 9.95L137.35 9.95Q137.35 10.91 137.04 11.84L137.04 11.84L137.04 11.84Q136.72 12.78 136.11 13.52L136.11 13.52L136.11 13.52Q135.49 14.27 134.60 14.73L134.60 14.73L134.60 14.73Q133.70 15.20 132.52 15.20L132.52 15.20L132.52 15.20Q131.98 15.20 131.66 15.15L131.66 15.15L131.66 15.15Q131.33 15.11 131.05 15.04L131.05 15.04L131.05 15.04Q130.77 14.98 130.44 14.93L130.44 14.93L130.44 14.93Q130.10 14.88 129.53 14.88L129.53 14.88L129.53 14.88Q129.29 14.88 128.95 15.02L128.95 15.02L128.95 15.02Q128.60 15.16 128.28 15.42L128.28 15.42L128.28 15.42Q127.96 15.68 127.73 16.07L127.73 16.07L127.73 16.07Q127.50 16.46 127.50 16.97L127.50 16.97L127.50 16.97Q127.50 17.21 127.61 17.39L127.61 17.39L127.61 17.39Q127.72 17.58 127.91 17.72L127.91 17.72L127.91 17.72Q128.10 17.86 128.34 17.96L128.34 17.96L128.34 17.96Q128.58 18.06 128.83 18.13L128.83 18.13L128.83 18.13Q129.42 18.28 130.17 18.33L130.17 18.33L130.17 18.33Q129.37 18.31 128.76 18.16L128.76 18.16L128.76 18.16Q128.49 18.10 128.24 18.00L128.24 18.00L128.24 18.00Q127.99 17.91 127.79 17.76L127.79 17.76L127.79 17.76Q127.60 17.61 127.48 17.42L127.48 17.42L127.48 17.42Q127.36 17.22 127.36 16.97L127.36 16.97L127.36 16.97Q127.36 16.46 127.65 15.97L127.65 15.97L127.65 15.97Q127.95 15.48 128.44 15.10L128.44 15.10L128.44 15.10Q128.93 14.71 129.57 14.48L129.57 14.48L129.57 14.48Q130.21 14.24 130.91 14.24L130.91 14.24L130.91 14.24Q131.42 14.24 131.73 14.27L131.73 14.27L131.73 14.27Q132.05 14.31 132.34 14.35L132.34 14.35L132.34 14.35Q132.64 14.39 132.99 14.43L132.99 14.43L132.99 14.43Q133.35 14.46 133.95 14.46L133.95 14.46L133.95 14.46Q134.76 14.46 135.20 14.15L135.20 14.15L135.20 14.15Q135.63 13.85 135.83 13.38L135.83 13.38L135.83 13.38Q136.02 12.92 136.04 12.39L136.04 12.39L136.04 12.39Q136.07 11.86 136.07 11.42L136.07 11.42L136.07 11.42Q136.07 10.79 135.81 10.19L135.81 10.19L135.81 10.19Q135.56 9.59 135.13 9.13L135.13 9.13L135.13 9.13Q134.71 8.67 134.16 8.39L134.16 8.39L134.16 8.39Q133.60 8.11 133 8.11L133 8.11L133 8.11Q132.68 8.11 132.49 8.16L132.49 8.16L132.49 8.16Q132.30 8.22 132.19 8.27L132.19 8.27L132.19 8.27Q132.44 8.64 132.56 9.09L132.56 9.09L132.56 9.09Q132.68 9.55 132.68 9.95L132.68 9.95L132.68 9.95Q132.68 10.96 132.35 11.71L132.35 11.71L132.35 11.71Q132.02 12.46 131.63 12.96L131.63 12.96L131.63 12.96Q131.17 13.55 130.58 13.99L130.58 13.99L130.58 13.99Q130.77 13.64 130.93 13.22L130.93 13.22L130.93 13.22Q131.07 12.85 131.18 12.40L131.18 12.40L131.18 12.40Q131.29 11.94 131.29 11.42L131.29 11.42L131.29 11.42Q131.29 10.79 131.05 10.19L131.05 10.19L131.05 10.19Q130.82 9.59 130.41 9.13L130.41 9.13L130.41 9.13Q130.00 8.67 129.47 8.39L129.47 8.39L129.47 8.39Q128.94 8.11 128.34 8.11L128.34 8.11L128.34 8.11Q128.03 8.11 127.74 8.18L127.74 8.18L127.74 8.18Q127.44 8.26 127.27 8.46L127.27 8.46L127.27 8.46Q127.27 8.72 127.25 9.21L127.25 9.21L127.25 9.21Q127.23 9.70 127.23 10.35L127.23 10.35L127.23 10.35Q127.23 11.00 127.27 11.77L127.27 11.77L127.27 11.77Q127.32 12.54 127.44 13.37L127.44 13.37L127.44 13.37Q126.95 13.37 126.45 13.56L126.45 13.56L126.45 13.56Q125.96 13.75 125.58 13.99L125.58 13.99L125.58 13.99Q125.62 13.73 125.66 13.22L125.66 13.22L125.66 13.22Q125.71 12.70 125.73 12.07L125.73 12.07L125.73 12.07Q125.76 11.45 125.76 10.79L125.76 10.79L125.76 10.79Q125.76 10.12 125.71 9.55L125.71 9.55L125.71 9.55Q125.66 8.99 125.55 8.59L125.55 8.59L125.55 8.59Q125.44 8.19 125.26 8.11L125.26 8.11L125.26 8.11Q125.13 8.08 125.01 8.08L125.01 8.08L125.01 8.08Q124.89 8.08 124.78 8.09L124.78 8.09L124.78 8.09Q124.66 8.11 124.54 8.13L124.54 8.13L124.54 8.13Q125.02 7.83 125.45 7.57L125.45 7.57L125.45 7.57Q125.82 7.36 126.20 7.18L126.20 7.18L126.20 7.18Q126.59 7 126.80 7L126.80 7L126.80 7Q126.98 7 127.08 7.01L127.08 7.01L127.08 7.01Q127.18 7.03 127.22 7.13L127.22 7.13L127.22 7.13Q127.26 7.24 127.27 7.46L127.27 7.46L127.27 7.46Q127.27 7.69 127.27 8.11L127.27 8.11L127.27 8.11Q127.82 7.57 128.53 7.29L128.53 7.29L128.53 7.29Q129.23 7 129.86 7L129.86 7L129.86 7Q130.54 7 131.11 7.27L131.11 7.27L131.11 7.27Q131.68 7.55 132.03 8.02L132.03 8.02L132.03 8.02Q132.64 7.55 133.28 7.27L133.28 7.27L133.28 7.27Q133.92 7 134.53 7ZM140.83 5.24L140.83 5.24L140.83 5.24Q140.64 5.38 140.46 5.53L140.46 5.53L140.46 5.53Q140.31 5.67 140.12 5.85L140.12 5.85L140.12 5.85Q139.93 6.03 139.78 6.23L139.78 6.23L139.78 6.23Q139.62 5.98 139.45 5.80L139.45 5.80L139.45 5.80Q139.29 5.61 139.13 5.49L139.13 5.49L139.13 5.49Q138.96 5.33 138.80 5.24L138.80 5.24L138.80 5.24Q138.98 5.10 139.15 4.94L139.15 4.94L139.15 4.94Q139.30 4.80 139.47 4.62L139.47 4.62L139.47 4.62Q139.64 4.44 139.78 4.23L139.78 4.23L139.78 4.23Q139.93 4.47 140.11 4.65L140.11 4.65L140.11 4.65Q140.29 4.84 140.45 4.97L140.45 4.97L140.45 4.97Q140.63 5.12 140.83 5.24ZM138.57 8.12L138.57 8.12L138.57 8.12Q138.91 7.98 139.21 7.88L139.21 7.88L139.21 7.88Q139.51 7.77 139.78 7.65L139.78 7.65L139.78 7.65Q140.06 7.53 140.31 7.38L140.31 7.38L140.31 7.38Q140.57 7.24 140.83 7.01L140.83 7.01L140.83 7.01Q140.94 7.39 140.92 7.93L140.92 7.93L140.92 7.93Q140.91 8.47 140.86 9.06L140.86 9.06L140.86 9.06Q140.81 9.66 140.80 10.26L140.80 10.26L140.80 10.26Q140.78 10.86 140.90 11.35L140.90 11.35L140.90 11.35Q141.02 11.84 141.32 12.17L141.32 12.17L141.32 12.17Q141.62 12.50 142.23 12.56L142.23 12.56L142.23 12.56Q141.62 12.95 141.20 13.30L141.20 13.30L141.20 13.30Q140.77 13.65 140.35 14.01L140.35 14.01L140.35 14.01Q140.22 13.96 140.07 13.89L140.07 13.89L140.07 13.89Q139.92 13.82 139.78 13.69L139.78 13.69L139.78 13.69Q139.64 13.55 139.53 13.35L139.53 13.35L139.53 13.35Q139.43 13.15 139.41 12.82L139.41 12.82L139.41 12.82Q139.43 11.87 139.45 11.01L139.45 11.01L139.45 11.01Q139.48 10.15 139.43 9.50L139.43 9.50L139.43 9.50Q139.37 8.85 139.18 8.48L139.18 8.48L139.18 8.48Q138.99 8.11 138.57 8.12ZM144.98-0.03L144.98-0.03L144.98-0.03Q144.98-3.22 144.93-4.93L144.93-4.93L144.93-4.93Q144.87-6.65 144.70-7.01L144.70-7.01L144.70-7.01Q145.12-7.01 145.56-7.22L145.56-7.22L145.56-7.22Q146.01-7.42 146.47-7.73L146.47-7.73L146.47-7.73Q146.93-8.04 147.42-8.40L147.42-8.40L147.42-8.40Q147.91-8.76 148.42-9.07L148.42-9.07L148.42-9.07Q148.93-9.38 149.49-9.58L149.49-9.58L149.49-9.58Q150.04-9.79 150.63-9.79L150.63-9.79L150.63-9.79Q151.41-9.79 151.94-9.55L151.94-9.55L151.94-9.55Q152.47-9.32 152.80-8.93L152.80-8.93L152.80-8.93Q153.12-8.54 153.25-8.04L153.25-8.04L153.25-8.04Q153.38-7.55 153.38-7.01L153.38-7.01L153.38-7.01Q153.38-5.70 152.96-4.59L152.96-4.59L152.96-4.59Q152.54-3.47 151.86-2.54L151.86-2.54L151.86-2.54Q151.17-1.61 150.29-0.85L150.29-0.85L150.29-0.85Q149.41-0.10 148.50 0.49L148.50 0.49L148.50 0.49Q146.36 1.88 143.63 2.74L143.63 2.74L143.63 2.74Q146.31 1.88 148.43 0.49L148.43 0.49L148.43 0.49Q149.32-0.10 150.19-0.85L150.19-0.85L150.19-0.85Q151.06-1.61 151.74-2.54L151.74-2.54L151.74-2.54Q152.42-3.47 152.83-4.59L152.83-4.59L152.83-4.59Q153.24-5.70 153.24-7.01L153.24-7.01L153.24-7.01Q153.24-7.55 153.12-8.02L153.12-8.02L153.12-8.02Q152.99-8.50 152.69-8.86L152.69-8.86L152.69-8.86Q152.39-9.23 151.89-9.44L151.89-9.44L151.89-9.44Q151.38-9.65 150.63-9.65L150.63-9.65L150.63-9.65Q149.80-9.65 149.14-9.33L149.14-9.33L149.14-9.33Q148.48-9.02 148.00-8.57L148.00-8.57L148.00-8.57Q147.52-8.13 147.22-7.66L147.22-7.66L147.22-7.66Q146.92-7.20 146.82-6.87L146.82-6.87L146.82-6.87Q146.66-6.40 146.58-5.85L146.58-5.85L146.58-5.85Q146.50-5.31 146.45-4.53L146.45-4.53L146.45-4.53Q146.41-3.75 146.41-2.65L146.41-2.65L146.41-2.65Q146.40-1.55 146.40 0.03L146.40 0.03L146.40 0.03Q146.40 0.71 146.40 1.48L146.40 1.48L146.40 1.48Q146.40 2.25 146.41 3.03L146.41 3.03L146.41 3.03Q146.41 3.81 146.42 4.52L146.42 4.52L146.42 4.52Q146.43 5.24 146.43 5.80L146.43 5.80L146.43 5.80Q146.44 6.36 146.44 6.71L146.44 6.71L146.44 6.71Q146.44 7.06 146.44 7.08L146.44 7.08L146.44 7.08Q146.69 7.17 146.98 7.20L146.98 7.20L146.98 7.20Q147.27 7.24 147.55 7.24L147.55 7.24L147.55 7.24Q147.83 7.24 148.08 7.22L148.08 7.22L148.08 7.22Q148.33 7.20 148.50 7.18L148.50 7.18L148.50 7.18Q148.33 7.38 148.06 7.51L148.06 7.51L148.06 7.51Q147.78 7.64 147.48 7.74L147.48 7.74L147.48 7.74Q147.18 7.84 146.90 7.90L146.90 7.90L146.90 7.90Q146.61 7.97 146.40 8.02L146.40 8.02L146.40 8.02Q146.43 8.54 146.38 9.06L146.38 9.06L146.38 9.06Q146.34 9.59 146.34 10.08L146.34 10.08L146.34 10.08Q146.34 10.57 146.43 11.00L146.43 11.00L146.43 11.00Q146.51 11.44 146.77 11.77L146.77 11.77L146.77 11.77Q147.03 12.11 147.51 12.33L147.51 12.33L147.51 12.33Q147.99 12.54 148.79 12.59L148.79 12.59L148.79 12.59Q148.58 12.77 148.35 13.01L148.35 13.01L148.35 13.01Q148.12 13.24 147.87 13.45L147.87 13.45L147.87 13.45Q147.62 13.66 147.35 13.81L147.35 13.81L147.35 13.81Q147.08 13.96 146.80 13.96L146.80 13.96L146.80 13.96Q146.51 13.96 146.22 13.84L146.22 13.84L146.22 13.84Q145.92 13.72 145.69 13.48L145.69 13.48L145.69 13.48Q145.46 13.24 145.31 12.91L145.31 12.91L145.31 12.91Q145.15 12.57 145.14 12.12L145.14 12.12L145.14 12.12Q145.10 10.99 145.07 9.93L145.07 9.93L145.07 9.93Q145.04 8.86 145.04 7.98L145.04 7.98L145.04 7.98Q144.68 7.95 144.43 7.92L144.43 7.92L144.43 7.92Q144.19 7.90 144.03 7.87L144.03 7.87L144.03 7.87Q143.85 7.83 143.72 7.78L143.72 7.78L143.72 7.78Q143.91 7.71 144.12 7.62L144.12 7.62L144.12 7.62Q144.30 7.53 144.51 7.41L144.51 7.41L144.51 7.41Q144.72 7.29 144.93 7.13L144.93 7.13L144.93 7.13Q144.94 7.07 144.95 6.71L144.95 6.71L144.95 6.71Q144.96 6.36 144.96 5.79L144.96 5.79L144.96 5.79Q144.97 5.22 144.98 4.50L144.98 4.50L144.98 4.50Q144.98 3.78 144.98 3.00L144.98 3.00L144.98 3.00Q144.98 2.23 144.98 1.45L144.98 1.45L144.98 1.45Q144.98 0.67 144.98-0.03ZM154.81 12.49L154.81 12.49L154.81 12.49Q155.22 12.49 155.57 12.38L155.57 12.38L155.57 12.38Q155.93 12.28 156.20 12.14L156.20 12.14L156.20 12.14Q156.51 11.98 156.77 11.79L156.77 11.79L156.77 11.79Q156.39 12.42 155.86 12.91L155.86 12.91L155.86 12.91Q155.41 13.33 154.73 13.67L154.73 13.67L154.73 13.67Q154.06 14.01 153.16 14.01L153.16 14.01L153.16 14.01Q152.52 14.01 151.93 13.79L151.93 13.79L151.93 13.79Q151.34 13.57 150.88 13.15L150.88 13.15L150.88 13.15Q150.43 12.73 150.16 12.12L150.16 12.12L150.16 12.12Q149.90 11.51 149.90 10.75L149.90 10.75L149.90 10.75Q149.90 10.07 150.12 9.54L150.12 9.54L150.12 9.54Q150.33 9.02 150.68 8.62L150.68 8.62L150.68 8.62Q151.03 8.23 151.47 7.97L151.47 7.97L151.47 7.97Q151.90 7.71 152.32 7.55L152.32 7.55L152.32 7.55Q153.66 7 154.15 7L154.15 7L154.15 7Q154.67 7 155.06 7.17L155.06 7.17L155.06 7.17Q155.44 7.35 155.72 7.56L155.72 7.56L155.72 7.56Q156.03 7.81 156.27 8.12L156.27 8.12L151.65 9.98L151.65 9.98Q151.75 10.57 151.93 11.03L151.93 11.03L151.93 11.03Q152.11 11.49 152.46 11.82L152.46 11.82L152.46 11.82Q152.81 12.14 153.37 12.31L153.37 12.31L153.37 12.31Q153.93 12.49 154.81 12.49ZM152.54 7.81L152.54 7.81L152.54 7.81Q152.35 7.81 152.17 7.92L152.17 7.92L152.17 7.92Q151.98 8.02 151.84 8.19L151.84 8.19L151.84 8.19Q151.69 8.36 151.61 8.57L151.61 8.57L151.61 8.57Q151.54 8.78 151.55 8.99L151.55 8.99L151.55 8.99Q151.55 9.21 151.56 9.42L151.56 9.42L151.56 9.42Q151.56 9.63 151.61 9.84L151.61 9.84L153.96 8.76L153.96 8.76Q153.82 8.50 153.61 8.29L153.61 8.29L153.61 8.29Q153.43 8.11 153.16 7.96L153.16 7.96L153.16 7.96Q152.89 7.81 152.54 7.81ZM161.76 0.01L161.76 0.01L161.76 0.01Q162.92 0.01 163.80 0.41L163.80 0.41L163.80 0.41Q164.68 0.80 165.26 1.37L165.26 1.37L165.26 1.37Q165.83 1.93 166.09 2.57L166.09 2.57L166.09 2.57Q166.35 3.21 166.26 3.68L166.26 3.68L166.26 3.68Q166.26 3.08 165.90 2.46L165.90 2.46L165.90 2.46Q165.54 1.85 164.91 1.34L164.91 1.34L164.91 1.34Q164.29 0.84 163.48 0.53L163.48 0.53L163.48 0.53Q162.68 0.21 161.80 0.21L161.80 0.21L161.80 0.21Q161.17 0.21 160.43 0.41L160.43 0.41L160.43 0.41Q159.68 0.62 159.05 0.95L159.05 0.95L159.05 0.95Q158.42 1.27 158.00 1.69L158.00 1.69L158.00 1.69Q157.58 2.11 157.58 2.55L157.58 2.55L157.58 2.55Q157.58 2.93 157.82 3.35L157.82 3.35L157.82 3.35Q158.06 3.77 158.44 4.19L158.44 4.19L158.44 4.19Q158.82 4.61 159.29 5.00L159.29 5.00L159.29 5.00Q159.77 5.40 160.24 5.74L160.24 5.74L160.24 5.74Q160.71 6.08 161.13 6.34L161.13 6.34L161.13 6.34Q161.56 6.61 161.84 6.75L161.84 6.75L161.84 6.75Q162.25 6.96 162.83 7.20L162.83 7.20L162.83 7.20Q163.42 7.43 163.97 7.80L163.97 7.80L163.97 7.80Q164.51 8.16 164.90 8.72L164.90 8.72L164.90 8.72Q165.28 9.28 165.28 10.12L165.28 10.12L165.28 10.12Q165.28 10.58 165.14 10.96L165.14 10.96L165.14 10.96Q165.00 11.34 164.77 11.67L164.77 11.67L164.77 11.67Q164.54 12.00 164.24 12.29L164.24 12.29L164.24 12.29Q163.94 12.57 163.62 12.82L163.62 12.82L163.62 12.82Q162.95 13.37 162.34 13.69L162.34 13.69L162.34 13.69Q161.73 14.01 161.08 14.01L161.08 14.01L161.08 14.01Q160.54 14.01 160.09 13.79L160.09 13.79L160.09 13.79Q159.64 13.57 159.32 13.22L159.32 13.22L159.32 13.22Q159.00 12.87 158.82 12.43L158.82 12.43L158.82 12.43Q158.65 12.00 158.65 11.58L158.65 11.58L158.65 11.58Q158.65 10.98 158.79 10.57L158.79 10.57L158.79 10.57Q158.93 10.16 159.15 9.88L159.15 9.88L159.15 9.88Q159.38 9.60 159.66 9.41L159.66 9.41L159.66 9.41Q159.95 9.21 160.24 9.03L160.24 9.03L160.24 9.03Q160.52 8.82 160.82 8.65L160.82 8.65L160.82 8.65Q161.11 8.48 161.43 8.37L161.43 8.37L161.43 8.37Q160.93 8.13 160.46 7.88L160.46 7.88L160.46 7.88Q159.99 7.63 159.64 7.35L159.64 7.35L159.64 7.35Q159.25 7.08 158.65 6.66L158.65 6.66L158.65 6.66Q158.05 6.24 157.47 5.73L157.47 5.73L157.47 5.73Q156.90 5.22 156.48 4.65L156.48 4.65L156.48 4.65Q156.07 4.07 156.07 3.50L156.07 3.50L156.07 3.50Q156.07 3.08 156.37 2.65L156.37 2.65L156.37 2.65Q156.67 2.23 157.16 1.84L157.16 1.84L157.16 1.84Q157.64 1.46 158.26 1.12L158.26 1.12L158.26 1.12Q158.89 0.78 159.52 0.54L159.52 0.54L159.52 0.54Q160.15 0.29 160.73 0.15L160.73 0.15L160.73 0.15Q161.32 0.01 161.76 0.01ZM163.73 10.96L163.73 10.96L163.73 10.96Q163.73 10.54 163.56 10.19L163.56 10.19L163.56 10.19Q163.38 9.83 163.09 9.53L163.09 9.53L163.09 9.53Q162.81 9.23 162.42 8.97L162.42 8.97L162.42 8.97Q162.04 8.72 161.62 8.51L161.62 8.51L161.62 8.51Q161.36 8.55 161.10 8.70L161.10 8.70L161.10 8.70Q160.83 8.85 160.61 9.08L160.61 9.08L160.61 9.08Q160.38 9.31 160.24 9.63L160.24 9.63L160.24 9.63Q160.10 9.94 160.10 10.30L160.10 10.30L160.10 10.30Q160.10 10.75 160.27 11.17L160.27 11.17L160.27 11.17Q160.44 11.59 160.75 11.91L160.75 11.91L160.75 11.91Q161.07 12.24 161.53 12.44L161.53 12.44L161.53 12.44Q161.99 12.64 162.60 12.64L162.60 12.64L162.60 12.64Q163.07 12.64 163.31 12.52L163.31 12.52L163.31 12.52Q163.55 12.40 163.64 12.19L163.64 12.19L163.64 12.19Q163.73 11.97 163.73 11.66L163.73 11.66L163.73 11.66Q163.73 11.35 163.73 10.96Z"></path></g><defs data-v-fde0c5aa=""><!----></defs><g data-v-fde0c5aa="" id="5b9d078e-1506-4664-acda-1cf8be0c0c22" stroke="none" fill="#87B38D" transform="matrix(0.7823901903800774,0,0,0.7823901903800774,39.049381342737234,118.9044802355895)"><path d="M74.98 10.4c.569-.563.998-1.26 1.594-1.795-2.557 7.334-2.817 11.09 1.648 14.484.456.396.992.697 1.394 1.153a1.865 1.865 0 0 1-1.36.228c-5.851-.195-10.291 3.781-9.4 9.38-.268-.188-.496-.436-.757-.63-5.02-2.106-12.306.346-13.996 5.634-.207.502-.616.877-.991 1.26-.1-.356-.208-.717-.396-1.032-.85-1.508-1.976-2.828-3.142-4.094-.864-.817-1.728-1.668-2.8-2.218-1.18-.556-2.573-.79-3.826-.341-1.67.646-1.497 1.802-.89 2.767.569 1.105.609 2.385.93 3.564.536 1.213 1.535 2.15 2.62 2.868.69.495 1.407.937 2.15 1.34.738.415 1.367.991 2.004 1.547.623.543 1.058 1.266 1.393 2.017 2.806 5.478 3.166 9.526-1.098 13.714-.57.57-1.226 1.025-1.863 1.5.516.765 1.22 1.481 1.34 2.433.604 10.184-12.49 8.023-5.28-1.488.503-.71 1.126-1.326 1.71-1.963-.57-.804-.899-1.855-.577-2.82.255.362.308.817.429 1.233.167.402.475.73.817.998 5.42-3.55 5.552-11.681-1.172-13.781-1.387-.235-2.8-.376-4.134-.858.16.51.395 1.005.784 1.38.228.228.107.59-.04.824-.268.543-.798.858-1.213 1.266-.382.422-.717.905-.898 1.44-.107.35-.107.724-.22 1.073-.168.308-.477.496-.758.69.02.636.248 1.253.241 1.89-.455-.128-.837-.41-1.192-.711.013.368.067.744.04 1.119-.429-.282-.79-.65-1.166-.985-.134-.134-.328-.027-.489-.034-.342-.455-.63-.991-.502-1.587.107-.335.288-.71.643-.838.315-.154.71-.094.971-.355.77-.69 1.434-1.48 2.104-2.264.234-.329.59-.644.55-1.092-.061-1.072-.55-2.064-1.113-2.955h-.214c-.456.891-.583 2.023-.1 2.928.153.24-.128.475-.262.656-.523.53-1.3.59-1.903.985-.489.288-.965.643-1.266 1.132-.168.242-.255.536-.462.75-.268.222-.643.229-.938.41-.188.556-.12 1.165-.335 1.715-.06 0-.174.006-.235.006-.261-.322-.482-.677-.71-1.032-.107.349-.154.71-.301 1.045-.402-.268-.503-.81-.744-1.212-.067-.195-.288-.195-.449-.255-.288-.67-.295-1.628.402-2.05.422-.415 1.052.04 1.54-.194 1.187-.503 2.346-1.092 3.411-1.823.348-.214.295-.69.375-1.038.054-.777.134-1.581-.14-2.325-.382-.965-.938-1.869-1.113-2.9-.127-.771.161-1.495.436-2.192.04-.57.033-1.152.06-1.728-.094-.851.074-1.735-.254-2.546-.309-.804-.617-1.648-1.153-2.332-.415-.515-1.159-.395-1.681-.12-2.198 1.079-4.114 2.814-5.213 5.025-.516.938-.55 2.07-1.105 2.988-1.262-3.978-7.1-6.275-10.693-5.079a5.38 5.38 0 0 1-.241.79c-1.756-4.08-6.715-9.148-12.636-5.513 1.503-4.765 1.816-8.429-1.54-13.091-.316-.596-.242-1.293-.39-1.936.028-.014.081-.054.108-.067.703.73 1.36 1.527 2.224 2.077 3.802 1.89 12.695 6.362 19.208 2.11.422-.094.871 0 1.246.2-.899.816-.258 1.852.108 2.795 1.021 1.946 1.973 3.594 3.604 4.763 3.754.288 7.82-.76 11.29.32 1.488-2.495 2.858-4.736 2.96-7.602-.248.04-.442.187-.63.348-.254.234-.616.174-.937.174.053-.254.107-.509.154-.764-.643-.381-1.032-1.098-1.749-1.373-.134-.067-.1-.248-.134-.369a12.69 12.69 0 0 0-1.722-.301c.128-.502.556-.871 1.019-1.059.341.014.65.215.984.262.577.328 1.146-.282 1.722.02.898.321 1.95.342 2.767-.188.074.094.773-.106.847-.012-.174.194-1 .655-1.188.836a.773.773 0 0 1 .013.128c.677.087 2.144-.075 2.627.494-.43.108-1.521.202-1.95.276.475.925 2.009 2.525 1.841 3.59-.094-.013-1.325-.588-1.412-.602-.114.804.24 2.157.173 2.968-.1 0-.776-.563-.877-.563-.027.65-.382 1.2-.603 1.79-.14.622-.188 1.265-.281 1.895 2.876-.19 6.713.448 9.178-.281 1.213-1.233 2.057-2.754 2.948-4.221.691-1.555 2.048-2.85.871-4.16.348-.034.704-.094 1.045.013 7.5-.01 13.318-2.16 18.31-8.522M48.523 64.118c-.147-.683-.542-1.26-1.011-1.762-10.496 7.604 2.42 9.514 1.011 1.762z"></path></g><defs data-v-fde0c5aa=""><!----></defs><g data-v-fde0c5aa="" id="8567b6af-34e8-4d54-9435-952291e0c41a" fill="#87B38D" transform="matrix(0.6500640113190704,0,0,0.6500640113190704,113.6055898120237,165.58811464646894)"><path d="M7.57 2.21L7.57 6.33L2.18 6.33L2.18 2.21L1.13 2.21L1.13 11.48L2.18 11.48L2.18 7.35L7.57 7.35L7.57 11.48L8.62 11.48L8.62 2.21ZM24.71 3.22L24.71 2.21L17.89 2.21L17.89 11.48L24.71 11.48L24.71 10.47L18.94 10.47L18.94 7.35L24.09 7.35L24.09 6.33L18.94 6.33L18.94 3.22ZM34.45 7.92L37.67 7.92L39.91 11.48L41.16 11.48L38.72 7.74C39.76 7.50 40.96 6.90 40.96 5.11C40.96 3.35 39.75 2.21 37.84 2.21L33.40 2.21L33.40 11.48L34.45 11.48ZM34.45 3.21L37.72 3.21C39.03 3.21 39.91 3.93 39.91 5.11C39.91 6.55 38.65 6.93 37.66 6.93L34.45 6.93ZM56.59 3.22L56.59 2.21L49.77 2.21L49.77 11.48L56.59 11.48L56.59 10.47L50.82 10.47L50.82 7.35L55.97 7.35L55.97 6.33L50.82 6.33L50.82 3.22ZM81.10 6.75C81.76 6.45 82.35 5.85 82.35 4.66C82.35 3.54 81.61 2.21 79.42 2.21L75.26 2.21L75.26 11.48L79.66 11.48C81.77 11.48 82.82 10.43 82.82 9.04C82.82 7.66 81.89 7 81.10 6.75ZM76.31 3.21L79.53 3.21C80.81 3.21 81.30 3.98 81.30 4.75C81.30 5.88 80.39 6.36 79.42 6.36L76.31 6.36ZM79.77 10.49L76.31 10.49L76.31 7.31L79.66 7.31C81.13 7.31 81.77 8.09 81.77 8.96C81.77 9.93 81.05 10.49 79.77 10.49ZM98.35 3.22L98.35 2.21L91.53 2.21L91.53 11.48L98.35 11.48L98.35 10.47L92.58 10.47L92.58 7.35L97.73 7.35L97.73 6.33L92.58 6.33L92.58 3.22ZM120.93 2.21L117.03 2.21L117.03 11.48L120.93 11.48C123.14 11.48 125.19 9.74 125.19 6.85C125.19 3.95 123.14 2.21 120.93 2.21ZM120.89 10.49L118.08 10.49L118.08 3.21L120.89 3.21C122.86 3.21 124.14 4.86 124.14 6.85C124.14 8.83 122.86 10.49 120.89 10.49ZM134.93 7.92L138.15 7.92L140.39 11.48L141.64 11.48L139.20 7.74C140.24 7.50 141.44 6.90 141.44 5.11C141.44 3.35 140.22 2.21 138.32 2.21L133.88 2.21L133.88 11.48L134.93 11.48ZM134.93 3.21L138.19 3.21C139.51 3.21 140.39 3.93 140.39 5.11C140.39 6.55 139.13 6.93 138.14 6.93L134.93 6.93ZM154.41 2.21L153.09 2.21L149.16 11.48L150.32 11.48L151.45 8.79L156.04 8.79L157.18 11.48L158.34 11.48ZM151.86 7.83L153.75 3.30L155.64 7.83ZM170.31 2.10C167.52 2.10 165.75 4.21 165.75 6.85C165.75 9.48 167.45 11.59 170.28 11.59C171.96 11.59 173.05 10.74 173.64 9.84L173.64 11.48L174.61 11.48L174.61 6.55L170.25 6.55L170.25 7.50L173.64 7.50C173.64 9.44 172.05 10.57 170.37 10.57C168.11 10.57 166.80 8.93 166.80 6.85C166.80 4.76 168.14 3.12 170.39 3.12C171.81 3.12 172.82 3.74 173.38 4.73L174.52 4.73C173.84 3.18 172.30 2.10 170.31 2.10ZM187.57 2.10C184.76 2.10 182.87 4.21 182.87 6.85C182.87 9.48 184.76 11.59 187.57 11.59C190.39 11.59 192.28 9.48 192.28 6.85C192.28 4.21 190.39 2.10 187.57 2.10ZM187.57 10.57C185.32 10.57 183.92 8.93 183.92 6.85C183.92 4.76 185.32 3.12 187.57 3.12C189.83 3.12 191.23 4.76 191.23 6.85C191.23 8.93 189.83 10.57 187.57 10.57ZM207.90 2.21L207.90 10.01L202.17 2.21L200.96 2.21L200.96 11.48L202.01 11.48L202.01 3.65L207.73 11.48L208.95 11.48L208.95 2.21ZM218.83 4.65C218.83 4.03 219.20 3.08 221.30 3.08C222.99 3.08 223.78 3.82 223.89 4.75L224.97 4.75C224.88 3.36 223.76 2.10 221.30 2.10C218.97 2.10 217.81 3.15 217.81 4.66C217.81 7.84 224.15 6.69 224.15 8.96C224.15 10.05 223.17 10.60 221.61 10.60C220.00 10.60 218.69 10.05 218.62 8.71L217.53 8.71C217.67 10.37 218.79 11.59 221.54 11.59C223.82 11.59 225.20 10.64 225.20 8.92C225.20 5.68 218.83 6.80 218.83 4.65Z"></path></g></svg>