<?xml version="1.0" encoding="UTF-8"?>
<svg width="1200pt" height="1200pt" version="1.1" viewBox="0 0 1200 1200" xmlns="http://www.w3.org/2000/svg">
 <path d="m1124.7 156c8.543-8.4414 14.977-18.895 23.918-26.934-38.355 110.01-42.258 166.37 24.723 217.27 6.832 5.9297 14.875 10.453 20.902 17.285-6.1289 3.8203-13.465 4.8242-20.402 3.418-87.766-2.918-154.37 56.723-141 140.7-4.0195-2.8125-7.4375-6.5312-11.355-9.4453-75.293-31.582-184.59 5.1992-209.93 84.516-3.1172 7.5391-9.2461 13.164-14.875 18.895-1.5078-5.3281-3.1172-10.754-5.9297-15.477-12.762-22.613-29.645-42.41-47.133-61.402-12.965-12.262-25.93-25.023-42.008-33.266-17.688-8.3398-38.59-11.859-57.383-5.125-25.047 9.6914-22.453 27.039-13.367 41.504 8.543 16.582 9.1445 35.777 13.969 53.465 8.0391 18.191 23.012 32.258 39.293 43.012 10.352 7.4375 21.105 14.07 32.258 20.098 11.055 6.2305 20.5 14.875 30.047 23.215 9.3477 8.1406 15.879 18.992 20.902 30.25 42.082 82.172 47.477 142.89-16.48 205.71-8.543 8.543-18.391 15.375-27.938 22.512 7.7383 11.457 18.289 22.211 20.098 36.48 9.0547 152.77-187.36 120.35-79.191-22.309 7.5391-10.652 16.883-19.898 25.625-29.445-8.543-12.059-13.465-27.836-8.6445-42.309 3.8203 5.4258 4.6211 12.262 6.4336 18.492 2.5117 6.0312 7.1367 10.953 12.262 14.973 81.309-53.262 83.281-175.21-17.586-206.72-20.801-3.5156-42.008-5.6289-62.004-12.863 2.4102 7.6367 5.9297 15.074 11.758 20.703 3.418 3.418 1.6094 8.8438-0.60156 12.359-4.0195 8.1406-11.957 12.863-18.191 18.992-5.7266 6.332-10.754 13.566-13.465 21.605-1.6094 5.2266-1.6094 10.855-3.3164 16.078-2.5117 4.6211-7.1367 7.4375-11.355 10.352 0.30078 9.5469 3.7188 18.793 3.6172 28.34-6.832-1.9102-12.562-6.1289-17.887-10.652 0.20312 5.5273 1.0039 11.156 0.60156 16.781-6.4336-4.2227-11.859-9.7461-17.484-14.773-2.0117-2.0117-4.9258-0.40234-7.3359-0.50391-5.125-6.832-9.4453-14.875-7.5352-23.816 1.6094-5.0234 4.3203-10.652 9.6484-12.562 4.7227-2.3125 10.652-1.4062 14.57-5.3281 11.559-10.352 21.508-22.211 31.555-33.969 3.5156-4.9258 8.8438-9.6484 8.2422-16.379-0.90625-16.078-8.2422-30.953-16.684-44.32h-3.2148c-6.832 13.367-8.7422 30.352-1.5078 43.918 2.3125 3.6172-1.9102 7.1367-3.918 9.8477-7.8398 7.9375-19.496 8.8438-28.539 14.773-7.3359 4.3203-14.473 9.6484-18.992 16.984-2.5117 3.6172-3.8203 8.0391-6.9336 11.254-4.0195 3.3164-9.6484 3.418-14.07 6.1289-2.8125 8.3398-1.8086 17.484-5.0234 25.727-0.90625 0-2.6133 0.097656-3.5156 0.097656-3.918-4.8242-7.2344-10.148-10.652-15.477-1.6094 5.2266-2.3125 10.652-4.5234 15.676-6.0312-4.0195-7.5352-12.16-11.156-18.191-1.0039-2.9141-4.3203-2.9141-6.7344-3.8203-4.3203-10.051-4.4219-24.422 6.0312-30.75 6.332-6.2305 15.777 0.60156 23.113-2.9141 17.789-7.5391 35.172-16.379 51.152-27.336 5.2266-3.2148 4.4219-10.352 5.6289-15.578 0.80469-11.656 2.0117-23.719-2.1094-34.871-5.7266-14.473-14.07-28.039-16.684-43.516-1.9102-11.559 2.4102-22.41 6.5312-32.863 0.60156-8.543 0.50391-17.285 0.90625-25.93-1.4062-12.762 1.1055-26.027-3.8203-38.188-4.6211-12.059-9.2461-24.723-17.285-34.973-6.2305-7.7383-17.387-5.9297-25.223-1.8086-32.961 16.18-61.703 42.207-78.184 75.371-7.7383 14.07-8.2422 31.055-16.582 44.82-18.93-59.66-106.49-94.125-160.39-76.176-1.0039 4.0195-2.0117 8.0391-3.6172 11.859-26.344-61.215-100.72-137.24-189.54-82.707 22.543-71.48 27.234-126.43-23.113-196.37-4.7227-8.9453-3.6172-19.395-5.8281-29.043 0.40234-0.20312 1.207-0.80469 1.6094-1.0039 10.551 10.953 20.402 22.914 33.363 31.152 57.02 28.344 190.43 95.441 288.12 31.656 6.332-1.4062 13.062 0 18.691 3.0156-13.484 12.227-3.8711 27.762 1.6094 41.906 15.324 29.199 29.602 53.91 54.066 71.453 56.316 4.3086 117.29-11.395 169.36 4.793 22.316-37.422 42.867-71.035 44.398-114.04-3.7188 0.60156-6.6328 2.8125-9.4453 5.2266-3.8203 3.5156-9.2461 2.6133-14.07 2.6133 0.80469-3.8203 1.6094-7.6367 2.3125-11.457-9.6562-5.7148-15.484-16.469-26.238-20.59-2.0078-1.0039-1.5078-3.7188-2.0078-5.5273-8.543-2.2109-17.188-3.5156-25.828-4.5234 1.9102-7.5352 8.3398-13.062 15.273-15.879 5.125 0.20312 9.75 3.2148 14.773 3.918 8.6445 4.9258 17.184-4.2227 25.828 0.30078 13.465 4.8242 29.246 5.125 41.504-2.8125 1.1055 1.4062 11.594-1.5977 12.699-0.19141-2.6133 2.9141-15.012 9.8359-17.824 12.551 0.097656 0.40234 0.20312 1.4062 0.20312 1.9102 10.148 1.3047 32.164-1.1172 39.398 7.4219-6.4336 1.6094-22.816 3.0273-29.25 4.1328 7.1367 13.867 30.133 37.879 27.621 53.859-1.4062-0.20312-19.883-8.8359-21.188-9.0352-1.707 12.059 3.6094 32.352 2.6055 44.512-1.5078 0-11.648-8.4336-13.156-8.4336-0.40234 9.75-5.7266 17.988-9.043 26.832-2.1094 9.3477-2.8125 18.992-4.2227 28.441 43.152-2.8398 100.7 6.7227 137.68-4.2227 18.191-18.492 30.852-41.305 44.219-63.312 10.363-23.328 30.723-42.762 13.062-62.406 5.2266-0.50391 10.551-1.4062 15.676 0.20312 112.49-0.14062 199.77-32.402 274.66-127.83m-396.86 805.77c-2.2109-10.25-8.1406-18.895-15.176-26.43-157.43 114.05 36.312 142.71 15.176 26.43z"/>
</svg>
